<?xml version="1.0" encoding="UTF-8"?>
<svg xmlns="http://www.w3.org/2000/svg" xmlns:xlink="http://www.w3.org/1999/xlink" width="75pt" height="74.999997pt" viewBox="0 0 75 74.999997" version="1.2">
<defs>
<clipPath id="clip1">
  <path d="M 8 5.785156 L 68.699219 5.785156 L 68.699219 32 L 8 32 Z M 8 5.785156 "/>
</clipPath>
<clipPath id="clip2">
  <path d="M 14 43 L 68.699219 43 L 68.699219 65 L 14 65 Z M 14 43 "/>
</clipPath>
<clipPath id="clip3">
  <path d="M 5.957031 43 L 20 43 L 20 68.53125 L 5.957031 68.53125 Z M 5.957031 43 "/>
</clipPath>
<clipPath id="clip4">
  <path d="M 51.089844 7.5 L 56 7.5 L 56 15 L 51.089844 15 Z M 51.089844 7.5 "/>
</clipPath>
<clipPath id="clip5">
  <path d="M 51.089844 7.5 L 59.339844 7.5 L 59.339844 15 L 51.089844 15 Z M 51.089844 7.5 "/>
</clipPath>
<clipPath id="clip6">
  <path d="M 55 7.5 L 56 7.5 L 56 15 L 55 15 Z M 55 7.5 "/>
</clipPath>
<clipPath id="clip7">
  <path d="M 51.089844 11 L 59.339844 11 L 59.339844 12 L 51.089844 12 Z M 51.089844 11 "/>
</clipPath>
<clipPath id="clip8">
  <path d="M 54 7.5 L 57 7.5 L 57 15 L 54 15 Z M 54 7.5 "/>
</clipPath>
<clipPath id="clip9">
  <path d="M 51.089844 10 L 59.339844 10 L 59.339844 13 L 51.089844 13 Z M 51.089844 10 "/>
</clipPath>
<clipPath id="clip10">
  <path d="M 53 7.5 L 58 7.5 L 58 15 L 53 15 Z M 53 7.5 "/>
</clipPath>
<clipPath id="clip11">
  <path d="M 53 7.5 L 58 7.5 L 58 15 L 53 15 Z M 53 7.5 "/>
</clipPath>
<clipPath id="clip12">
  <path d="M 51.089844 10 L 59.339844 10 L 59.339844 12 L 51.089844 12 Z M 51.089844 10 "/>
</clipPath>
<clipPath id="clip13">
  <path d="M 54 7.5 L 57 7.5 L 57 15 L 54 15 Z M 54 7.5 "/>
</clipPath>
<clipPath id="clip14">
  <path d="M 51.089844 9 L 52 9 L 52 13 L 51.089844 13 Z M 51.089844 9 "/>
</clipPath>
</defs>
<g id="surface1">
<rect x="0" y="0" width="75" height="74.999997" style="fill:rgb(100%,100%,100%);fill-opacity:1;stroke:none;"/>
<rect x="0" y="0" width="75" height="74.999997" style="fill:rgb(100%,100%,100%);fill-opacity:1;stroke:none;"/>
<rect x="0" y="0" width="75" height="74.999997" style="fill:rgb(100%,100%,100%);fill-opacity:1;stroke:none;"/>
<path style=" stroke:none;fill-rule:nonzero;fill:rgb(29.019165%,49.798584%,79.219055%);fill-opacity:1;" d="M 29.632812 42.539062 L 24.25 42.539062 L 24.25 33.929688 L 29.632812 33.929688 L 29.632812 42.539062 "/>
<path style=" stroke:none;fill-rule:nonzero;fill:rgb(29.019165%,49.798584%,79.219055%);fill-opacity:1;" d="M 39.320312 42.539062 L 33.9375 42.539062 L 33.9375 27.472656 L 39.320312 27.472656 L 39.320312 42.539062 "/>
<path style=" stroke:none;fill-rule:nonzero;fill:rgb(29.019165%,49.798584%,79.219055%);fill-opacity:1;" d="M 49.003906 42.539062 L 43.625 42.539062 L 43.625 31.777344 L 49.003906 31.777344 L 49.003906 42.539062 "/>
<path style=" stroke:none;fill-rule:nonzero;fill:rgb(29.019165%,49.798584%,79.219055%);fill-opacity:1;" d="M 58.691406 42.539062 L 53.308594 42.539062 L 53.308594 25.320312 L 58.691406 25.320312 L 58.691406 42.539062 "/>
<g clip-path="url(#clip1)" clip-rule="nonzero">
<path style=" stroke:none;fill-rule:nonzero;fill:rgb(96.469116%,54.899597%,6.669617%);fill-opacity:1;" d="M 67.300781 5.949219 L 61.917969 5.949219 L 61.917969 8.101562 L 64.703125 8.101562 L 54.386719 18.417969 L 45.460938 9.492188 C 45.039062 9.070312 44.359375 9.070312 43.9375 9.492188 L 31.785156 21.644531 L 25.011719 14.871094 C 24.59375 14.453125 23.910156 14.453125 23.492188 14.871094 L 8.421875 29.941406 L 9.945312 31.460938 L 24.25 17.15625 L 31.023438 23.929688 C 31.445312 24.347656 32.125 24.347656 32.546875 23.929688 L 44.699219 11.773438 L 53.625 20.699219 C 54.046875 21.121094 54.726562 21.121094 55.144531 20.699219 L 66.222656 9.621094 L 66.222656 12.40625 L 68.375 12.40625 L 68.375 7.023438 C 68.375 6.429688 67.894531 5.949219 67.300781 5.949219 "/>
</g>
<g clip-path="url(#clip2)" clip-rule="nonzero">
<path style=" stroke:none;fill-rule:nonzero;fill:rgb(97.24884%,85.099792%,65.489197%);fill-opacity:1;" d="M 68.019531 44.875 C 66.882812 43.152344 64.65625 42.558594 62.832031 43.492188 L 55.035156 47.484375 C 54.992188 47.34375 54.933594 47.207031 54.851562 47.074219 C 53.542969 44.820312 50.71875 43.988281 48.40625 45.175781 L 39.71875 49.636719 C 38.480469 50.265625 37.019531 50.257812 35.796875 49.605469 L 29.878906 46.464844 C 25.660156 44.226562 20.554688 44.535156 16.625 47.277344 L 14.453125 48.792969 L 15.855469 52.488281 L 17.621094 63.644531 L 22.410156 62.613281 C 23.351562 62.40625 24.328125 62.367188 25.28125 62.496094 L 38.726562 63.96875 C 41.25 64.308594 43.808594 63.710938 45.929688 62.285156 L 67.425781 47.871094 C 68.40625 47.214844 68.671875 45.867188 68.019531 44.875 "/>
</g>
<path style=" stroke:none;fill-rule:nonzero;fill:rgb(76.078796%,58.428955%,36.079407%);fill-opacity:1;" d="M 53.902344 51.1875 C 56.550781 49.621094 55.667969 48.082031 55.335938 47.328125 L 55.035156 47.484375 C 55.351562 48.425781 54.976562 49.496094 54.089844 50.023438 L 42.117188 57.125 C 39.777344 58.515625 36.996094 58.957031 34.355469 58.351562 L 26.402344 56.53125 L 34.175781 59.382812 C 36.808594 60.1875 39.578125 59.847656 41.925781 58.429688 L 53.902344 51.1875 "/>
<path style=" stroke:none;fill-rule:nonzero;fill:rgb(97.24884%,92.939758%,86.669922%);fill-opacity:1;" d="M 17.480469 48.644531 C 21.230469 46.261719 25.710938 45.535156 29.90625 46.472656 L 29.878906 46.464844 C 25.660156 44.226562 20.554688 44.535156 16.625 47.277344 L 14.453125 48.792969 L 14.996094 50.21875 L 17.480469 48.644531 "/>
<g clip-path="url(#clip3)" clip-rule="nonzero">
<path style=" stroke:none;fill-rule:nonzero;fill:rgb(25.099182%,32.939148%,38.038635%);fill-opacity:1;" d="M 19.164062 66.574219 L 10.816406 68.367188 L 5.957031 45.21875 L 14.304688 43.417969 L 19.164062 66.574219 "/>
</g>
<path style=" stroke:none;fill-rule:nonzero;fill:rgb(12.548828%,11.759949%,11.369324%);fill-opacity:1;" d="M 10.179688 49.800781 L 9.738281 47.691406 L 11.84375 47.25 L 12.285156 49.359375 L 10.179688 49.800781 "/>
<g clip-path="url(#clip4)" clip-rule="nonzero">
<path style=" stroke:none;fill-rule:nonzero;fill:rgb(96.469116%,52.938843%,7.058716%);fill-opacity:1;" d="M 54.867188 14.921875 C 52.820312 14.921875 51.164062 13.277344 51.164062 11.25 C 51.164062 9.222656 52.820312 7.578125 54.867188 7.578125 L 55.558594 7.578125 L 55.558594 14.921875 L 54.867188 14.921875 "/>
<path style=" stroke:none;fill-rule:nonzero;fill:rgb(100%,56.858826%,30.198669%);fill-opacity:1;" d="M 54.867188 14.921875 L 54.867188 14.847656 C 53.863281 14.847656 52.957031 14.445312 52.300781 13.792969 C 51.644531 13.144531 51.238281 12.246094 51.238281 11.25 C 51.238281 10.257812 51.644531 9.359375 52.300781 8.707031 C 52.957031 8.054688 53.863281 7.652344 54.867188 7.652344 L 55.484375 7.652344 L 55.484375 14.847656 L 54.867188 14.847656 L 54.867188 14.996094 L 55.558594 14.996094 C 55.578125 14.996094 55.597656 14.988281 55.609375 14.972656 C 55.625 14.960938 55.632812 14.941406 55.632812 14.921875 L 55.632812 7.578125 C 55.632812 7.5625 55.625 7.542969 55.609375 7.527344 C 55.597656 7.515625 55.578125 7.507812 55.558594 7.507812 L 54.867188 7.507812 C 53.824219 7.507812 52.878906 7.925781 52.195312 8.601562 C 51.511719 9.28125 51.089844 10.21875 51.089844 11.25 C 51.089844 12.285156 51.511719 13.222656 52.195312 13.898438 C 52.878906 14.574219 53.824219 14.996094 54.867188 14.996094 L 54.867188 14.921875 "/>
</g>
<g clip-path="url(#clip5)" clip-rule="nonzero">
<path style=" stroke:none;fill-rule:nonzero;fill:rgb(97.648621%,65.489197%,16.859436%);fill-opacity:1;" d="M 59.261719 11.25 C 59.261719 13.277344 57.605469 14.921875 55.558594 14.921875 C 53.511719 14.921875 51.851562 13.277344 51.851562 11.25 C 51.851562 9.222656 53.511719 7.578125 55.558594 7.578125 C 57.605469 7.578125 59.261719 9.222656 59.261719 11.25 "/>
<path style=" stroke:none;fill-rule:nonzero;fill:rgb(100%,56.858826%,30.198669%);fill-opacity:1;" d="M 59.261719 11.25 L 59.1875 11.25 C 59.1875 12.246094 58.78125 13.144531 58.125 13.792969 C 57.46875 14.445312 56.5625 14.847656 55.558594 14.847656 C 54.554688 14.847656 53.648438 14.445312 52.992188 13.792969 C 52.332031 13.144531 51.925781 12.246094 51.925781 11.25 C 51.925781 10.257812 52.332031 9.359375 52.992188 8.707031 C 53.648438 8.054688 54.554688 7.652344 55.558594 7.652344 C 56.5625 7.652344 57.46875 8.054688 58.125 8.707031 C 58.78125 9.359375 59.1875 10.257812 59.1875 11.25 L 59.335938 11.25 C 59.335938 10.21875 58.914062 9.28125 58.230469 8.601562 C 57.546875 7.925781 56.601562 7.507812 55.558594 7.507812 C 54.515625 7.507812 53.570312 7.925781 52.886719 8.601562 C 52.203125 9.28125 51.777344 10.21875 51.777344 11.25 C 51.777344 12.285156 52.203125 13.222656 52.886719 13.898438 C 53.570312 14.574219 54.515625 14.996094 55.558594 14.996094 C 56.601562 14.996094 57.546875 14.574219 58.230469 13.898438 C 58.914062 13.222656 59.335938 12.285156 59.335938 11.25 L 59.261719 11.25 "/>
</g>
<g clip-path="url(#clip6)" clip-rule="nonzero">
<path style=" stroke:none;fill-rule:nonzero;fill:rgb(100%,56.858826%,30.198669%);fill-opacity:1;" d="M 55.558594 14.835938 C 55.527344 14.835938 55.503906 14.8125 55.503906 14.78125 L 55.503906 7.578125 C 55.503906 7.550781 55.527344 7.527344 55.558594 7.527344 C 55.585938 7.527344 55.609375 7.550781 55.609375 7.578125 L 55.609375 14.78125 C 55.609375 14.8125 55.585938 14.835938 55.558594 14.835938 "/>
</g>
<g clip-path="url(#clip7)" clip-rule="nonzero">
<path style=" stroke:none;fill-rule:nonzero;fill:rgb(100%,56.858826%,30.198669%);fill-opacity:1;" d="M 51.871094 11.179688 C 51.871094 11.152344 51.894531 11.128906 51.921875 11.128906 L 59.191406 11.128906 C 59.222656 11.128906 59.246094 11.152344 59.246094 11.179688 C 59.246094 11.210938 59.222656 11.234375 59.191406 11.234375 L 51.921875 11.234375 C 51.894531 11.234375 51.871094 11.210938 51.871094 11.179688 "/>
</g>
<g clip-path="url(#clip8)" clip-rule="nonzero">
<path style=" stroke:none;fill-rule:nonzero;fill:rgb(100%,56.858826%,30.198669%);fill-opacity:1;" d="M 54.722656 14.738281 C 54.695312 14.734375 54.679688 14.707031 54.683594 14.679688 L 56.328125 7.660156 C 56.335938 7.632812 56.363281 7.617188 56.390625 7.621094 C 56.417969 7.628906 56.4375 7.65625 56.429688 7.683594 L 54.785156 14.703125 C 54.78125 14.730469 54.753906 14.746094 54.722656 14.738281 "/>
</g>
<g clip-path="url(#clip9)" clip-rule="nonzero">
<path style=" stroke:none;fill-rule:nonzero;fill:rgb(100%,56.858826%,30.198669%);fill-opacity:1;" d="M 51.964844 10.355469 C 51.972656 10.328125 52 10.308594 52.027344 10.316406 L 59.109375 11.945312 C 59.140625 11.953125 59.15625 11.980469 59.148438 12.007812 C 59.144531 12.035156 59.117188 12.054688 59.085938 12.046875 L 52.003906 10.417969 C 51.976562 10.410156 51.960938 10.382812 51.964844 10.355469 "/>
</g>
<g clip-path="url(#clip10)" clip-rule="nonzero">
<path style=" stroke:none;fill-rule:nonzero;fill:rgb(100%,56.858826%,30.198669%);fill-opacity:1;" d="M 53.933594 14.460938 C 53.90625 14.449219 53.898438 14.417969 53.910156 14.390625 L 57.113281 7.925781 C 57.125 7.898438 57.15625 7.890625 57.183594 7.902344 C 57.207031 7.914062 57.21875 7.945312 57.207031 7.972656 L 54.003906 14.4375 C 53.992188 14.464844 53.960938 14.472656 53.933594 14.460938 "/>
</g>
<path style=" stroke:none;fill-rule:nonzero;fill:rgb(100%,56.858826%,30.198669%);fill-opacity:1;" d="M 52.246094 9.574219 C 52.261719 9.546875 52.292969 9.535156 52.316406 9.546875 L 58.84375 12.722656 C 58.871094 12.734375 58.882812 12.765625 58.867188 12.789062 C 58.855469 12.816406 58.824219 12.828125 58.796875 12.8125 L 52.269531 9.640625 C 52.246094 9.628906 52.234375 9.597656 52.246094 9.574219 "/>
<path style=" stroke:none;fill-rule:nonzero;fill:rgb(100%,56.858826%,30.198669%);fill-opacity:1;" d="M 53.226562 14.011719 C 53.203125 13.996094 53.203125 13.960938 53.21875 13.941406 L 57.816406 8.359375 C 57.832031 8.335938 57.867188 8.332031 57.886719 8.351562 C 57.910156 8.367188 57.914062 8.402344 57.894531 8.421875 L 53.300781 14.003906 C 53.28125 14.027344 53.25 14.03125 53.226562 14.011719 "/>
<path style=" stroke:none;fill-rule:nonzero;fill:rgb(100%,56.858826%,30.198669%);fill-opacity:1;" d="M 52.699219 8.871094 C 52.71875 8.851562 52.75 8.847656 52.773438 8.863281 L 58.40625 13.417969 C 58.429688 13.4375 58.433594 13.46875 58.414062 13.492188 C 58.398438 13.511719 58.363281 13.515625 58.34375 13.496094 L 52.707031 8.945312 C 52.683594 8.925781 52.683594 8.894531 52.699219 8.871094 "/>
<path style=" stroke:none;fill-rule:nonzero;fill:rgb(100%,56.858826%,30.198669%);fill-opacity:1;" d="M 52.640625 13.417969 C 52.625 13.394531 52.628906 13.363281 52.652344 13.34375 L 58.402344 8.9375 C 58.421875 8.917969 58.457031 8.921875 58.472656 8.945312 C 58.492188 8.96875 58.488281 9 58.464844 9.019531 L 52.714844 13.425781 C 52.691406 13.445312 52.660156 13.441406 52.640625 13.417969 "/>
<path style=" stroke:none;fill-rule:nonzero;fill:rgb(100%,56.858826%,30.198669%);fill-opacity:1;" d="M 53.300781 8.292969 C 53.324219 8.273438 53.355469 8.277344 53.375 8.300781 L 57.824219 13.996094 C 57.84375 14.019531 57.835938 14.054688 57.816406 14.070312 C 57.792969 14.089844 57.757812 14.085938 57.742188 14.0625 L 53.292969 8.363281 C 53.273438 8.34375 53.277344 8.308594 53.300781 8.292969 "/>
<path style=" stroke:none;fill-rule:nonzero;fill:rgb(100%,56.858826%,30.198669%);fill-opacity:1;" d="M 52.207031 12.707031 C 52.195312 12.679688 52.207031 12.648438 52.234375 12.636719 L 58.839844 9.632812 C 58.867188 9.621094 58.898438 9.628906 58.910156 9.65625 C 58.921875 9.683594 58.910156 9.714844 58.882812 9.726562 L 52.277344 12.730469 C 52.25 12.742188 52.21875 12.734375 52.207031 12.707031 "/>
<g clip-path="url(#clip11)" clip-rule="nonzero">
<path style=" stroke:none;fill-rule:nonzero;fill:rgb(100%,56.858826%,30.198669%);fill-opacity:1;" d="M 54.019531 7.863281 C 54.046875 7.851562 54.074219 7.859375 54.089844 7.886719 L 57.121094 14.433594 C 57.136719 14.457031 57.125 14.488281 57.097656 14.5 C 57.070312 14.511719 57.039062 14.503906 57.027344 14.476562 L 53.992188 7.929688 C 53.980469 7.90625 53.992188 7.875 54.019531 7.863281 "/>
</g>
<g clip-path="url(#clip12)" clip-rule="nonzero">
<path style=" stroke:none;fill-rule:nonzero;fill:rgb(100%,56.858826%,30.198669%);fill-opacity:1;" d="M 51.945312 11.917969 C 51.941406 11.886719 51.957031 11.859375 51.984375 11.855469 L 59.109375 10.40625 C 59.136719 10.402344 59.164062 10.417969 59.171875 10.445312 C 59.175781 10.476562 59.15625 10.503906 59.128906 10.507812 L 52.007812 11.957031 C 51.980469 11.960938 51.953125 11.945312 51.945312 11.917969 "/>
</g>
<g clip-path="url(#clip13)" clip-rule="nonzero">
<path style=" stroke:none;fill-rule:nonzero;fill:rgb(100%,56.858826%,30.198669%);fill-opacity:1;" d="M 54.816406 7.601562 C 54.84375 7.597656 54.871094 7.613281 54.878906 7.644531 L 56.339844 14.699219 C 56.347656 14.726562 56.328125 14.753906 56.300781 14.761719 C 56.269531 14.765625 56.242188 14.746094 56.238281 14.71875 L 54.773438 7.664062 C 54.769531 7.636719 54.789062 7.609375 54.816406 7.601562 "/>
</g>
<path style=" stroke:none;fill-rule:nonzero;fill:rgb(100%,100%,100%);fill-opacity:1;" d="M 58.578125 11.25 C 58.578125 12.902344 57.226562 14.242188 55.558594 14.242188 C 53.890625 14.242188 52.535156 12.902344 52.535156 11.25 C 52.535156 9.597656 53.890625 8.257812 55.558594 8.257812 C 57.226562 8.257812 58.578125 9.597656 58.578125 11.25 "/>
<path style=" stroke:none;fill-rule:nonzero;fill:rgb(100%,56.858826%,30.198669%);fill-opacity:1;" d="M 58.578125 11.25 L 58.503906 11.25 C 58.503906 12.058594 58.175781 12.785156 57.640625 13.316406 C 57.109375 13.84375 56.371094 14.171875 55.558594 14.171875 C 54.742188 14.171875 54.007812 13.84375 53.472656 13.316406 C 52.941406 12.785156 52.609375 12.058594 52.609375 11.25 C 52.609375 10.445312 52.941406 9.714844 53.472656 9.1875 C 54.007812 8.65625 54.742188 8.332031 55.558594 8.332031 C 56.371094 8.332031 57.109375 8.65625 57.640625 9.1875 C 58.175781 9.714844 58.503906 10.445312 58.503906 11.25 L 58.652344 11.25 C 58.652344 10.402344 58.308594 9.636719 57.746094 9.082031 C 57.1875 8.527344 56.414062 8.183594 55.558594 8.183594 C 54.703125 8.183594 53.929688 8.527344 53.367188 9.082031 C 52.808594 9.636719 52.460938 10.402344 52.460938 11.25 C 52.460938 12.097656 52.808594 12.863281 53.367188 13.417969 C 53.929688 13.972656 54.703125 14.316406 55.558594 14.316406 C 56.414062 14.316406 57.1875 13.972656 57.746094 13.417969 C 58.308594 12.863281 58.652344 12.097656 58.652344 11.25 L 58.578125 11.25 "/>
<path style=" stroke:none;fill-rule:nonzero;fill:rgb(100%,56.858826%,30.198669%);fill-opacity:1;" d="M 58.253906 11.25 L 58.179688 11.25 C 58.179688 11.96875 57.886719 12.617188 57.410156 13.085938 C 56.9375 13.558594 56.28125 13.847656 55.558594 13.847656 C 54.832031 13.847656 54.179688 13.558594 53.703125 13.085938 C 53.230469 12.617188 52.9375 11.96875 52.9375 11.25 C 52.9375 10.535156 53.230469 9.882812 53.703125 9.414062 C 54.179688 8.945312 54.832031 8.652344 55.558594 8.652344 C 56.28125 8.652344 56.9375 8.945312 57.410156 9.414062 C 57.886719 9.882812 58.179688 10.535156 58.179688 11.25 L 58.328125 11.25 C 58.328125 10.492188 58.019531 9.804688 57.515625 9.308594 C 57.015625 8.8125 56.324219 8.507812 55.558594 8.507812 C 54.792969 8.507812 54.101562 8.8125 53.597656 9.308594 C 53.097656 9.804688 52.789062 10.492188 52.789062 11.25 C 52.789062 12.007812 53.097656 12.695312 53.597656 13.191406 C 54.101562 13.6875 54.792969 13.996094 55.558594 13.996094 C 56.324219 13.996094 57.015625 13.6875 57.515625 13.191406 C 58.019531 12.695312 58.328125 12.007812 58.328125 11.25 L 58.253906 11.25 "/>
<path style=" stroke:none;fill-rule:nonzero;fill:rgb(100%,56.858826%,30.198669%);fill-opacity:1;" d="M 55.390625 8.636719 C 55.363281 8.636719 55.34375 8.617188 55.339844 8.589844 C 55.339844 8.558594 55.359375 8.535156 55.390625 8.535156 C 55.425781 8.53125 55.460938 8.53125 55.496094 8.527344 C 55.523438 8.527344 55.546875 8.550781 55.550781 8.578125 C 55.550781 8.609375 55.527344 8.632812 55.5 8.632812 C 55.464844 8.632812 55.429688 8.636719 55.394531 8.636719 Z M 55.808594 8.644531 L 55.804688 8.644531 C 55.769531 8.640625 55.738281 8.636719 55.703125 8.636719 C 55.675781 8.632812 55.652344 8.609375 55.652344 8.582031 C 55.65625 8.550781 55.679688 8.53125 55.707031 8.53125 C 55.746094 8.535156 55.78125 8.535156 55.816406 8.539062 C 55.84375 8.542969 55.863281 8.566406 55.863281 8.597656 C 55.859375 8.625 55.835938 8.644531 55.808594 8.644531 Z M 55.082031 8.671875 C 55.054688 8.671875 55.035156 8.65625 55.03125 8.628906 C 55.023438 8.601562 55.042969 8.574219 55.074219 8.570312 C 55.105469 8.566406 55.140625 8.558594 55.175781 8.554688 C 55.207031 8.550781 55.234375 8.570312 55.238281 8.597656 C 55.242188 8.625 55.21875 8.652344 55.191406 8.65625 C 55.15625 8.660156 55.125 8.667969 55.089844 8.671875 C 55.085938 8.671875 55.085938 8.671875 55.082031 8.671875 Z M 56.121094 8.691406 C 56.117188 8.691406 56.113281 8.691406 56.109375 8.6875 C 56.074219 8.683594 56.042969 8.675781 56.007812 8.667969 C 55.980469 8.664062 55.960938 8.636719 55.964844 8.609375 C 55.96875 8.582031 55.996094 8.5625 56.027344 8.566406 C 56.0625 8.574219 56.097656 8.582031 56.128906 8.585938 C 56.160156 8.59375 56.175781 8.621094 56.171875 8.648438 C 56.164062 8.671875 56.144531 8.691406 56.121094 8.691406 Z M 54.777344 8.746094 C 54.753906 8.746094 54.734375 8.730469 54.726562 8.710938 C 54.71875 8.679688 54.734375 8.652344 54.761719 8.644531 C 54.796875 8.632812 54.828125 8.625 54.863281 8.617188 C 54.890625 8.609375 54.921875 8.625 54.929688 8.652344 C 54.933594 8.679688 54.917969 8.710938 54.890625 8.714844 C 54.859375 8.726562 54.824219 8.734375 54.792969 8.742188 C 54.785156 8.746094 54.78125 8.746094 54.777344 8.746094 Z M 56.421875 8.773438 C 56.417969 8.773438 56.410156 8.769531 56.40625 8.769531 C 56.371094 8.757812 56.339844 8.75 56.308594 8.738281 C 56.28125 8.730469 56.265625 8.703125 56.273438 8.675781 C 56.28125 8.648438 56.308594 8.628906 56.335938 8.640625 C 56.371094 8.648438 56.40625 8.660156 56.4375 8.671875 C 56.464844 8.679688 56.480469 8.710938 56.472656 8.738281 C 56.464844 8.757812 56.445312 8.773438 56.421875 8.773438 Z M 54.484375 8.851562 C 54.460938 8.851562 54.445312 8.839844 54.433594 8.820312 C 54.421875 8.796875 54.433594 8.765625 54.460938 8.753906 C 54.496094 8.738281 54.527344 8.726562 54.558594 8.714844 C 54.585938 8.703125 54.617188 8.714844 54.628906 8.742188 C 54.636719 8.769531 54.625 8.800781 54.597656 8.808594 C 54.566406 8.820312 54.535156 8.835938 54.503906 8.847656 C 54.496094 8.851562 54.488281 8.851562 54.484375 8.851562 Z M 56.710938 8.890625 C 56.707031 8.890625 56.699219 8.886719 56.691406 8.882812 C 56.660156 8.871094 56.628906 8.855469 56.597656 8.84375 C 56.570312 8.832031 56.558594 8.800781 56.570312 8.773438 C 56.582031 8.746094 56.613281 8.734375 56.636719 8.746094 C 56.671875 8.761719 56.703125 8.773438 56.734375 8.789062 C 56.761719 8.800781 56.773438 8.832031 56.761719 8.859375 C 56.75 8.878906 56.730469 8.890625 56.710938 8.890625 Z M 54.203125 8.992188 C 54.1875 8.992188 54.167969 8.984375 54.160156 8.96875 C 54.144531 8.941406 54.152344 8.910156 54.175781 8.894531 C 54.207031 8.878906 54.238281 8.863281 54.269531 8.84375 C 54.296875 8.832031 54.328125 8.839844 54.339844 8.867188 C 54.355469 8.890625 54.34375 8.921875 54.320312 8.9375 C 54.289062 8.953125 54.257812 8.96875 54.230469 8.984375 C 54.222656 8.992188 54.210938 8.992188 54.203125 8.992188 Z M 56.988281 9.039062 C 56.976562 9.039062 56.96875 9.035156 56.960938 9.03125 C 56.929688 9.011719 56.902344 8.996094 56.871094 8.976562 C 56.847656 8.964844 56.839844 8.933594 56.851562 8.90625 C 56.867188 8.882812 56.898438 8.875 56.925781 8.886719 C 56.953125 8.90625 56.984375 8.921875 57.015625 8.941406 C 57.039062 8.957031 57.046875 8.988281 57.03125 9.015625 C 57.023438 9.03125 57.003906 9.039062 56.988281 9.039062 Z M 53.941406 9.164062 C 53.925781 9.164062 53.910156 9.15625 53.902344 9.144531 C 53.882812 9.121094 53.886719 9.089844 53.910156 9.070312 C 53.941406 9.050781 53.96875 9.027344 53.996094 9.007812 C 54.019531 8.992188 54.054688 9 54.070312 9.023438 C 54.085938 9.046875 54.082031 9.078125 54.058594 9.09375 C 54.027344 9.113281 54 9.132812 53.972656 9.152344 C 53.964844 9.160156 53.953125 9.164062 53.941406 9.164062 Z M 57.242188 9.21875 C 57.230469 9.21875 57.21875 9.214844 57.210938 9.207031 C 57.183594 9.1875 57.15625 9.164062 57.128906 9.144531 C 57.105469 9.128906 57.101562 9.09375 57.117188 9.070312 C 57.136719 9.050781 57.167969 9.042969 57.191406 9.0625 C 57.21875 9.082031 57.25 9.105469 57.277344 9.125 C 57.296875 9.144531 57.300781 9.175781 57.285156 9.199219 C 57.273438 9.210938 57.257812 9.21875 57.242188 9.21875 Z M 53.703125 9.363281 C 53.691406 9.363281 53.675781 9.359375 53.664062 9.347656 C 53.644531 9.328125 53.644531 9.292969 53.667969 9.273438 C 53.691406 9.25 53.71875 9.226562 53.746094 9.203125 C 53.769531 9.183594 53.800781 9.1875 53.820312 9.207031 C 53.839844 9.230469 53.835938 9.261719 53.816406 9.28125 C 53.789062 9.304688 53.765625 9.328125 53.738281 9.351562 C 53.730469 9.359375 53.714844 9.363281 53.703125 9.363281 Z M 57.476562 9.425781 C 57.460938 9.425781 57.449219 9.421875 57.4375 9.410156 C 57.414062 9.386719 57.390625 9.363281 57.363281 9.339844 C 57.34375 9.320312 57.34375 9.289062 57.363281 9.265625 C 57.382812 9.246094 57.414062 9.246094 57.4375 9.265625 C 57.460938 9.289062 57.488281 9.3125 57.511719 9.335938 C 57.535156 9.359375 57.535156 9.390625 57.511719 9.410156 C 57.503906 9.421875 57.488281 9.425781 57.476562 9.425781 Z M 53.488281 9.589844 C 53.476562 9.589844 53.464844 9.585938 53.457031 9.578125 C 53.433594 9.558594 53.429688 9.527344 53.449219 9.503906 C 53.472656 9.480469 53.496094 9.453125 53.519531 9.425781 C 53.539062 9.40625 53.570312 9.402344 53.59375 9.421875 C 53.613281 9.441406 53.617188 9.472656 53.597656 9.496094 C 53.574219 9.519531 53.550781 9.546875 53.527344 9.570312 C 53.519531 9.585938 53.503906 9.589844 53.488281 9.589844 Z M 57.683594 9.660156 C 57.667969 9.660156 57.652344 9.652344 57.640625 9.640625 C 57.621094 9.613281 57.597656 9.585938 57.578125 9.558594 C 57.558594 9.539062 57.5625 9.503906 57.582031 9.488281 C 57.605469 9.46875 57.636719 9.472656 57.65625 9.492188 C 57.679688 9.519531 57.703125 9.546875 57.722656 9.574219 C 57.742188 9.597656 57.738281 9.628906 57.714844 9.648438 C 57.707031 9.65625 57.695312 9.660156 57.683594 9.660156 Z M 53.300781 9.839844 C 53.292969 9.839844 53.28125 9.835938 53.273438 9.832031 C 53.25 9.816406 53.242188 9.785156 53.257812 9.757812 C 53.277344 9.730469 53.296875 9.703125 53.320312 9.671875 C 53.335938 9.648438 53.367188 9.644531 53.390625 9.660156 C 53.414062 9.675781 53.421875 9.710938 53.402344 9.734375 C 53.382812 9.761719 53.363281 9.789062 53.347656 9.816406 C 53.335938 9.832031 53.320312 9.839844 53.300781 9.839844 Z M 57.859375 9.914062 C 57.84375 9.914062 57.828125 9.90625 57.816406 9.890625 C 57.796875 9.859375 57.78125 9.832031 57.761719 9.804688 C 57.746094 9.78125 57.75 9.746094 57.777344 9.730469 C 57.800781 9.714844 57.832031 9.722656 57.847656 9.746094 C 57.867188 9.777344 57.886719 9.804688 57.90625 9.835938 C 57.921875 9.859375 57.914062 9.890625 57.886719 9.90625 C 57.878906 9.910156 57.871094 9.914062 57.859375 9.914062 Z M 53.144531 10.109375 C 53.136719 10.109375 53.128906 10.109375 53.121094 10.105469 C 53.097656 10.089844 53.085938 10.058594 53.097656 10.035156 C 53.113281 10.003906 53.132812 9.972656 53.148438 9.941406 C 53.164062 9.914062 53.195312 9.90625 53.21875 9.921875 C 53.246094 9.933594 53.253906 9.964844 53.242188 9.992188 C 53.222656 10.019531 53.207031 10.050781 53.191406 10.082031 C 53.183594 10.097656 53.164062 10.109375 53.144531 10.109375 Z M 58.007812 10.1875 C 57.988281 10.1875 57.96875 10.175781 57.960938 10.15625 C 57.945312 10.125 57.929688 10.097656 57.914062 10.066406 C 57.902344 10.039062 57.914062 10.007812 57.9375 9.996094 C 57.964844 9.984375 57.996094 9.992188 58.007812 10.019531 C 58.027344 10.050781 58.039062 10.082031 58.054688 10.113281 C 58.066406 10.140625 58.054688 10.171875 58.03125 10.183594 C 58.023438 10.1875 58.015625 10.1875 58.007812 10.1875 Z M 53.023438 10.394531 C 53.015625 10.394531 53.011719 10.394531 53.003906 10.390625 C 52.976562 10.382812 52.960938 10.351562 52.972656 10.324219 C 52.984375 10.292969 52.996094 10.257812 53.011719 10.226562 C 53.023438 10.199219 53.050781 10.1875 53.078125 10.199219 C 53.105469 10.207031 53.117188 10.238281 53.109375 10.265625 C 53.09375 10.296875 53.082031 10.328125 53.070312 10.359375 C 53.0625 10.382812 53.042969 10.394531 53.023438 10.394531 Z M 58.121094 10.476562 C 58.101562 10.476562 58.078125 10.460938 58.074219 10.441406 C 58.0625 10.410156 58.050781 10.375 58.039062 10.34375 C 58.027344 10.316406 58.042969 10.289062 58.070312 10.277344 C 58.097656 10.269531 58.128906 10.28125 58.136719 10.308594 C 58.148438 10.34375 58.160156 10.375 58.171875 10.410156 C 58.179688 10.4375 58.164062 10.464844 58.136719 10.472656 C 58.132812 10.476562 58.128906 10.476562 58.121094 10.476562 Z M 52.933594 10.691406 C 52.929688 10.691406 52.925781 10.691406 52.921875 10.691406 C 52.894531 10.683594 52.875 10.65625 52.882812 10.628906 C 52.890625 10.59375 52.898438 10.558594 52.90625 10.527344 C 52.914062 10.5 52.945312 10.484375 52.972656 10.492188 C 53 10.496094 53.015625 10.527344 53.007812 10.554688 C 53 10.585938 52.992188 10.621094 52.984375 10.652344 C 52.976562 10.675781 52.957031 10.691406 52.933594 10.691406 Z M 58.203125 10.777344 C 58.175781 10.777344 58.15625 10.761719 58.148438 10.734375 C 58.144531 10.703125 58.136719 10.667969 58.128906 10.636719 C 58.121094 10.609375 58.136719 10.582031 58.167969 10.574219 C 58.195312 10.566406 58.222656 10.582031 58.230469 10.613281 C 58.238281 10.644531 58.246094 10.679688 58.253906 10.714844 C 58.257812 10.742188 58.238281 10.769531 58.210938 10.777344 C 58.207031 10.777344 58.203125 10.777344 58.203125 10.777344 Z M 52.878906 11 C 52.878906 11 52.875 11 52.875 11 C 52.84375 10.996094 52.824219 10.96875 52.828125 10.941406 C 52.832031 10.90625 52.835938 10.871094 52.839844 10.835938 C 52.847656 10.808594 52.871094 10.789062 52.902344 10.792969 C 52.929688 10.796875 52.949219 10.824219 52.945312 10.851562 C 52.941406 10.886719 52.933594 10.917969 52.929688 10.953125 C 52.929688 10.980469 52.90625 11 52.878906 11 Z M 58.246094 11.085938 C 58.21875 11.085938 58.195312 11.0625 58.191406 11.035156 C 58.191406 11.003906 58.1875 10.96875 58.183594 10.9375 C 58.179688 10.90625 58.199219 10.882812 58.226562 10.878906 C 58.257812 10.875 58.28125 10.894531 58.285156 10.921875 C 58.289062 10.957031 58.292969 10.992188 58.296875 11.027344 C 58.300781 11.058594 58.277344 11.082031 58.25 11.085938 Z M 52.863281 11.304688 C 52.832031 11.304688 52.808594 11.285156 52.808594 11.257812 L 52.863281 11.257812 L 52.808594 11.253906 C 52.808594 11.21875 52.808594 11.183594 52.8125 11.152344 C 52.8125 11.121094 52.835938 11.097656 52.867188 11.101562 C 52.894531 11.101562 52.917969 11.125 52.917969 11.15625 C 52.914062 11.1875 52.914062 11.21875 52.914062 11.25 C 52.914062 11.28125 52.890625 11.304688 52.863281 11.304688 Z M 58.25 11.40625 C 58.21875 11.40625 58.199219 11.378906 58.199219 11.351562 C 58.199219 11.320312 58.199219 11.285156 58.199219 11.25 L 58.199219 11.238281 C 58.199219 11.210938 58.222656 11.1875 58.253906 11.1875 C 58.28125 11.1875 58.304688 11.210938 58.304688 11.238281 L 58.304688 11.25 C 58.304688 11.285156 58.304688 11.320312 58.304688 11.355469 C 58.304688 11.382812 58.28125 11.40625 58.25 11.40625 Z M 52.878906 11.617188 C 52.855469 11.617188 52.832031 11.597656 52.828125 11.574219 C 52.824219 11.539062 52.820312 11.503906 52.820312 11.46875 C 52.816406 11.4375 52.835938 11.414062 52.867188 11.410156 C 52.894531 11.410156 52.921875 11.429688 52.921875 11.460938 C 52.925781 11.492188 52.929688 11.527344 52.933594 11.558594 C 52.9375 11.589844 52.914062 11.613281 52.886719 11.617188 C 52.886719 11.617188 52.882812 11.617188 52.878906 11.617188 Z M 58.222656 11.714844 C 58.21875 11.714844 58.214844 11.714844 58.214844 11.714844 C 58.183594 11.710938 58.164062 11.683594 58.167969 11.65625 C 58.175781 11.621094 58.179688 11.589844 58.183594 11.554688 C 58.1875 11.527344 58.210938 11.503906 58.242188 11.507812 C 58.269531 11.511719 58.292969 11.539062 58.289062 11.566406 C 58.285156 11.601562 58.277344 11.636719 58.273438 11.671875 C 58.269531 11.695312 58.246094 11.714844 58.222656 11.714844 Z M 52.933594 11.921875 C 52.910156 11.921875 52.890625 11.90625 52.882812 11.882812 C 52.875 11.851562 52.867188 11.816406 52.863281 11.78125 C 52.855469 11.753906 52.875 11.726562 52.902344 11.71875 C 52.933594 11.714844 52.960938 11.734375 52.964844 11.761719 C 52.972656 11.792969 52.980469 11.828125 52.988281 11.859375 C 52.992188 11.886719 52.976562 11.914062 52.949219 11.921875 C 52.945312 11.921875 52.941406 11.921875 52.933594 11.921875 Z M 58.15625 12.019531 C 58.152344 12.019531 58.144531 12.019531 58.140625 12.015625 C 58.113281 12.007812 58.097656 11.980469 58.105469 11.953125 C 58.113281 11.921875 58.121094 11.886719 58.128906 11.855469 C 58.136719 11.828125 58.164062 11.808594 58.195312 11.816406 C 58.222656 11.820312 58.238281 11.851562 58.234375 11.878906 C 58.222656 11.914062 58.214844 11.945312 58.207031 11.980469 C 58.199219 12.003906 58.179688 12.019531 58.15625 12.019531 Z M 53.027344 12.222656 C 53.003906 12.222656 52.984375 12.207031 52.976562 12.1875 C 52.964844 12.152344 52.953125 12.121094 52.941406 12.085938 C 52.933594 12.058594 52.949219 12.03125 52.976562 12.023438 C 53.003906 12.011719 53.03125 12.027344 53.042969 12.054688 C 53.050781 12.085938 53.0625 12.121094 53.074219 12.152344 C 53.085938 12.179688 53.070312 12.207031 53.042969 12.21875 C 53.039062 12.21875 53.03125 12.222656 53.027344 12.222656 Z M 58.054688 12.3125 C 58.046875 12.3125 58.039062 12.3125 58.035156 12.308594 C 58.007812 12.296875 57.996094 12.265625 58.003906 12.242188 C 58.019531 12.210938 58.03125 12.175781 58.042969 12.144531 C 58.050781 12.117188 58.082031 12.105469 58.109375 12.113281 C 58.136719 12.125 58.152344 12.15625 58.140625 12.179688 C 58.128906 12.214844 58.117188 12.246094 58.101562 12.28125 C 58.09375 12.300781 58.074219 12.3125 58.054688 12.3125 Z M 53.152344 12.503906 C 53.132812 12.503906 53.113281 12.496094 53.105469 12.476562 C 53.085938 12.445312 53.074219 12.414062 53.058594 12.382812 C 53.046875 12.355469 53.058594 12.324219 53.082031 12.3125 C 53.109375 12.300781 53.140625 12.3125 53.152344 12.339844 C 53.167969 12.371094 53.183594 12.398438 53.199219 12.429688 C 53.210938 12.457031 53.199219 12.488281 53.175781 12.5 C 53.167969 12.503906 53.160156 12.503906 53.152344 12.503906 Z M 57.917969 12.59375 C 57.910156 12.59375 57.902344 12.589844 57.894531 12.585938 C 57.867188 12.574219 57.859375 12.539062 57.871094 12.515625 C 57.890625 12.484375 57.90625 12.457031 57.921875 12.425781 C 57.933594 12.398438 57.964844 12.390625 57.992188 12.402344 C 58.015625 12.414062 58.027344 12.445312 58.015625 12.472656 C 58 12.503906 57.980469 12.535156 57.964844 12.566406 C 57.953125 12.582031 57.9375 12.59375 57.917969 12.59375 Z M 53.308594 12.773438 C 53.289062 12.773438 53.273438 12.765625 53.265625 12.75 C 53.246094 12.722656 53.226562 12.691406 53.207031 12.660156 C 53.191406 12.636719 53.199219 12.605469 53.222656 12.589844 C 53.25 12.574219 53.28125 12.582031 53.296875 12.605469 C 53.3125 12.636719 53.332031 12.664062 53.351562 12.691406 C 53.367188 12.71875 53.359375 12.75 53.335938 12.765625 C 53.328125 12.769531 53.316406 12.773438 53.308594 12.773438 Z M 57.75 12.855469 C 57.742188 12.855469 57.730469 12.851562 57.722656 12.84375 C 57.699219 12.828125 57.691406 12.796875 57.707031 12.773438 C 57.730469 12.746094 57.746094 12.71875 57.765625 12.6875 C 57.78125 12.664062 57.816406 12.660156 57.839844 12.675781 C 57.863281 12.691406 57.871094 12.722656 57.855469 12.746094 C 57.835938 12.777344 57.816406 12.804688 57.792969 12.832031 C 57.785156 12.847656 57.769531 12.855469 57.75 12.855469 Z M 53.496094 13.023438 C 53.480469 13.023438 53.464844 13.015625 53.457031 13.003906 C 53.433594 12.976562 53.410156 12.949219 53.386719 12.921875 C 53.371094 12.898438 53.375 12.867188 53.398438 12.847656 C 53.421875 12.832031 53.453125 12.835938 53.472656 12.859375 C 53.492188 12.882812 53.511719 12.910156 53.535156 12.9375 C 53.554688 12.957031 53.550781 12.992188 53.527344 13.011719 C 53.519531 13.019531 53.507812 13.023438 53.496094 13.023438 Z M 57.554688 13.097656 C 57.542969 13.097656 57.53125 13.09375 57.519531 13.082031 C 57.496094 13.0625 57.496094 13.03125 57.515625 13.011719 C 57.539062 12.984375 57.5625 12.960938 57.582031 12.933594 C 57.601562 12.910156 57.636719 12.910156 57.65625 12.925781 C 57.679688 12.945312 57.683594 12.976562 57.664062 13 C 57.640625 13.027344 57.617188 13.054688 57.59375 13.078125 C 57.582031 13.089844 57.570312 13.097656 57.554688 13.097656 Z M 53.710938 13.246094 C 53.699219 13.246094 53.683594 13.242188 53.675781 13.234375 C 53.648438 13.210938 53.625 13.183594 53.597656 13.160156 C 53.578125 13.140625 53.578125 13.105469 53.597656 13.085938 C 53.621094 13.066406 53.652344 13.066406 53.671875 13.085938 C 53.695312 13.109375 53.722656 13.132812 53.746094 13.15625 C 53.769531 13.175781 53.769531 13.210938 53.75 13.230469 C 53.738281 13.242188 53.722656 13.246094 53.710938 13.246094 Z M 57.332031 13.3125 C 57.316406 13.3125 57.300781 13.308594 57.292969 13.296875 C 57.273438 13.273438 57.273438 13.242188 57.296875 13.222656 C 57.320312 13.199219 57.347656 13.179688 57.371094 13.15625 C 57.394531 13.136719 57.425781 13.136719 57.445312 13.15625 C 57.464844 13.179688 57.464844 13.210938 57.445312 13.230469 C 57.417969 13.253906 57.390625 13.277344 57.367188 13.300781 C 57.355469 13.308594 57.34375 13.3125 57.332031 13.3125 Z M 53.949219 13.445312 C 53.941406 13.445312 53.929688 13.445312 53.917969 13.4375 C 53.890625 13.414062 53.863281 13.394531 53.835938 13.371094 C 53.8125 13.355469 53.808594 13.320312 53.828125 13.300781 C 53.84375 13.277344 53.878906 13.273438 53.902344 13.292969 C 53.925781 13.3125 53.953125 13.332031 53.980469 13.351562 C 54.003906 13.371094 54.011719 13.402344 53.992188 13.425781 C 53.984375 13.441406 53.964844 13.445312 53.949219 13.445312 Z M 57.082031 13.503906 C 57.066406 13.503906 57.050781 13.496094 57.039062 13.480469 C 57.023438 13.457031 57.03125 13.425781 57.054688 13.410156 C 57.082031 13.390625 57.109375 13.371094 57.136719 13.351562 C 57.160156 13.332031 57.191406 13.339844 57.210938 13.359375 C 57.226562 13.382812 57.222656 13.417969 57.199219 13.433594 C 57.171875 13.457031 57.140625 13.476562 57.113281 13.496094 C 57.105469 13.5 57.09375 13.503906 57.082031 13.503906 Z M 54.210938 13.617188 C 54.203125 13.617188 54.195312 13.617188 54.1875 13.609375 C 54.15625 13.59375 54.125 13.574219 54.09375 13.554688 C 54.070312 13.539062 54.0625 13.507812 54.078125 13.484375 C 54.09375 13.460938 54.125 13.453125 54.152344 13.46875 C 54.179688 13.484375 54.210938 13.503906 54.238281 13.519531 C 54.265625 13.535156 54.273438 13.566406 54.257812 13.589844 C 54.25 13.609375 54.230469 13.617188 54.210938 13.617188 Z M 56.816406 13.664062 C 56.796875 13.664062 56.777344 13.65625 56.769531 13.636719 C 56.757812 13.613281 56.765625 13.582031 56.792969 13.566406 C 56.820312 13.550781 56.851562 13.535156 56.878906 13.519531 C 56.90625 13.503906 56.9375 13.511719 56.953125 13.539062 C 56.96875 13.5625 56.957031 13.59375 56.933594 13.609375 C 56.902344 13.625 56.871094 13.644531 56.839844 13.660156 C 56.832031 13.664062 56.824219 13.664062 56.816406 13.664062 Z M 54.492188 13.757812 C 54.484375 13.757812 54.480469 13.753906 54.472656 13.753906 C 54.441406 13.738281 54.40625 13.722656 54.375 13.707031 C 54.347656 13.695312 54.339844 13.664062 54.351562 13.640625 C 54.363281 13.613281 54.394531 13.601562 54.421875 13.613281 C 54.453125 13.628906 54.484375 13.644531 54.515625 13.65625 C 54.539062 13.667969 54.554688 13.699219 54.542969 13.726562 C 54.53125 13.746094 54.511719 13.757812 54.492188 13.757812 Z M 56.53125 13.792969 C 56.511719 13.792969 56.492188 13.78125 56.480469 13.761719 C 56.472656 13.734375 56.484375 13.703125 56.511719 13.695312 C 56.542969 13.679688 56.574219 13.667969 56.605469 13.65625 C 56.632812 13.644531 56.664062 13.65625 56.675781 13.683594 C 56.6875 13.707031 56.675781 13.738281 56.648438 13.75 C 56.617188 13.765625 56.582031 13.777344 56.550781 13.789062 C 56.542969 13.792969 56.539062 13.792969 56.53125 13.792969 Z M 54.789062 13.863281 C 54.78125 13.863281 54.777344 13.863281 54.773438 13.859375 C 54.738281 13.851562 54.703125 13.839844 54.671875 13.828125 C 54.644531 13.820312 54.628906 13.789062 54.640625 13.761719 C 54.648438 13.734375 54.679688 13.722656 54.707031 13.730469 C 54.738281 13.742188 54.769531 13.75 54.804688 13.761719 C 54.832031 13.769531 54.847656 13.796875 54.839844 13.824219 C 54.832031 13.847656 54.8125 13.863281 54.789062 13.863281 Z M 56.234375 13.890625 C 56.210938 13.890625 56.1875 13.875 56.183594 13.851562 C 56.175781 13.820312 56.191406 13.792969 56.21875 13.785156 C 56.253906 13.777344 56.285156 13.769531 56.320312 13.757812 C 56.347656 13.75 56.375 13.765625 56.382812 13.792969 C 56.390625 13.820312 56.375 13.851562 56.347656 13.859375 C 56.316406 13.867188 56.28125 13.878906 56.246094 13.886719 C 56.242188 13.886719 56.238281 13.890625 56.234375 13.890625 Z M 55.09375 13.933594 C 55.089844 13.933594 55.085938 13.933594 55.082031 13.933594 C 55.050781 13.925781 55.015625 13.921875 54.980469 13.914062 C 54.949219 13.90625 54.933594 13.878906 54.9375 13.851562 C 54.945312 13.824219 54.972656 13.804688 55 13.8125 C 55.035156 13.816406 55.066406 13.824219 55.101562 13.832031 C 55.128906 13.835938 55.148438 13.863281 55.144531 13.890625 C 55.140625 13.914062 55.117188 13.933594 55.09375 13.933594 Z M 55.925781 13.949219 C 55.898438 13.949219 55.878906 13.929688 55.875 13.902344 C 55.871094 13.875 55.890625 13.847656 55.917969 13.84375 C 55.953125 13.839844 55.984375 13.835938 56.019531 13.828125 C 56.046875 13.824219 56.074219 13.84375 56.082031 13.871094 C 56.085938 13.898438 56.066406 13.925781 56.039062 13.933594 C 56.003906 13.9375 55.96875 13.945312 55.933594 13.949219 C 55.929688 13.949219 55.925781 13.949219 55.925781 13.949219 Z M 55.402344 13.96875 C 55.367188 13.96875 55.332031 13.964844 55.296875 13.960938 C 55.265625 13.957031 55.246094 13.933594 55.246094 13.902344 C 55.25 13.875 55.277344 13.855469 55.304688 13.859375 C 55.339844 13.859375 55.371094 13.863281 55.40625 13.863281 C 55.4375 13.867188 55.457031 13.890625 55.457031 13.917969 C 55.453125 13.949219 55.433594 13.96875 55.402344 13.96875 Z M 55.613281 13.972656 C 55.585938 13.972656 55.5625 13.949219 55.5625 13.921875 C 55.558594 13.894531 55.582031 13.871094 55.613281 13.867188 C 55.644531 13.867188 55.679688 13.867188 55.714844 13.863281 C 55.742188 13.863281 55.769531 13.886719 55.769531 13.914062 C 55.773438 13.941406 55.75 13.96875 55.71875 13.96875 C 55.683594 13.96875 55.648438 13.972656 55.613281 13.972656 "/>
<path style=" stroke:none;fill-rule:nonzero;fill:rgb(100%,56.858826%,30.198669%);fill-opacity:1;" d="M 55.726562 11.421875 C 55.707031 11.460938 55.703125 11.535156 55.710938 11.644531 C 55.71875 11.804688 55.722656 11.882812 55.722656 11.871094 C 55.722656 12.246094 55.738281 12.433594 55.769531 12.433594 C 55.882812 12.433594 56 12.410156 56.121094 12.359375 C 56.265625 12.296875 56.339844 12.222656 56.339844 12.136719 C 56.339844 12.039062 56.265625 11.902344 56.113281 11.726562 C 55.957031 11.550781 55.832031 11.449219 55.726562 11.421875 Z M 54.792969 10.375 C 54.792969 10.464844 54.859375 10.558594 55 10.65625 C 55.109375 10.734375 55.21875 10.789062 55.332031 10.824219 C 55.339844 10.722656 55.34375 10.53125 55.34375 10.246094 C 55.34375 10.171875 55.324219 10.136719 55.289062 10.136719 C 55.191406 10.136719 55.09375 10.15625 54.992188 10.191406 C 54.859375 10.234375 54.792969 10.296875 54.792969 10.375 Z M 55.53125 9.101562 C 55.628906 9.101562 55.6875 9.167969 55.707031 9.300781 C 55.707031 9.320312 55.710938 9.421875 55.710938 9.605469 C 55.710938 9.671875 55.710938 9.699219 55.710938 9.699219 C 55.714844 9.707031 55.734375 9.714844 55.777344 9.714844 C 55.804688 9.714844 55.855469 9.714844 55.925781 9.71875 C 55.992188 9.722656 56.042969 9.726562 56.070312 9.726562 C 56.414062 9.726562 56.605469 9.820312 56.640625 10.015625 C 56.648438 10.0625 56.636719 10.101562 56.601562 10.144531 C 56.570312 10.1875 56.53125 10.203125 56.488281 10.195312 C 56.386719 10.175781 56.285156 10.152344 56.179688 10.125 C 56.003906 10.089844 55.855469 10.070312 55.742188 10.070312 C 55.699219 10.070312 55.679688 10.140625 55.679688 10.28125 C 55.679688 10.328125 55.679688 10.425781 55.6875 10.582031 C 55.695312 10.738281 55.699219 10.867188 55.699219 10.976562 C 55.699219 10.996094 55.789062 11.066406 55.96875 11.195312 C 56.183594 11.34375 56.34375 11.484375 56.453125 11.621094 C 56.628906 11.835938 56.710938 12.058594 56.695312 12.289062 C 56.683594 12.457031 56.558594 12.585938 56.3125 12.683594 C 56.144531 12.753906 55.976562 12.792969 55.808594 12.804688 L 55.804688 12.875 C 55.800781 12.914062 55.808594 12.96875 55.824219 13.042969 C 55.84375 13.113281 55.851562 13.167969 55.851562 13.199219 C 55.851562 13.332031 55.765625 13.398438 55.597656 13.398438 C 55.441406 13.398438 55.367188 13.28125 55.367188 13.046875 C 55.367188 13.007812 55.367188 12.960938 55.367188 12.902344 C 55.367188 12.84375 55.367188 12.808594 55.367188 12.792969 C 55.367188 12.773438 55.289062 12.742188 55.132812 12.691406 C 54.933594 12.625 54.785156 12.566406 54.691406 12.515625 C 54.535156 12.433594 54.457031 12.34375 54.457031 12.246094 C 54.457031 12.203125 54.46875 12.15625 54.496094 12.105469 C 54.519531 12.058594 54.550781 12.03125 54.582031 12.027344 C 54.699219 12.011719 54.84375 12.070312 55.019531 12.203125 C 55.195312 12.335938 55.300781 12.402344 55.332031 12.402344 C 55.355469 12.402344 55.367188 12.277344 55.367188 12.027344 C 55.367188 11.496094 55.347656 11.222656 55.316406 11.199219 C 55.125 11.097656 54.929688 11 54.742188 10.902344 C 54.515625 10.753906 54.40625 10.570312 54.417969 10.359375 C 54.425781 10.191406 54.511719 10.0625 54.675781 9.964844 C 54.765625 9.90625 54.914062 9.847656 55.125 9.789062 C 55.285156 9.742188 55.367188 9.699219 55.367188 9.664062 C 55.367188 9.628906 55.363281 9.570312 55.355469 9.488281 C 55.347656 9.40625 55.34375 9.351562 55.34375 9.324219 C 55.34375 9.175781 55.40625 9.101562 55.53125 9.101562 "/>
<path style=" stroke:none;fill-rule:nonzero;fill:rgb(100%,56.858826%,30.198669%);fill-opacity:1;" d="M 57.296875 9.804688 C 57.296875 9.8125 57.300781 9.820312 57.300781 9.824219 C 57.304688 9.832031 57.304688 9.835938 57.308594 9.839844 C 57.3125 9.847656 57.316406 9.855469 57.320312 9.863281 C 57.332031 9.878906 57.34375 9.898438 57.363281 9.925781 C 57.480469 10.113281 57.75 10.578125 57.75 11.246094 C 57.75 11.636719 57.660156 12.09375 57.390625 12.609375 L 57.503906 12.667969 C 57.78125 12.136719 57.878906 11.65625 57.878906 11.246094 C 57.878906 10.796875 57.761719 10.433594 57.644531 10.179688 C 57.589844 10.054688 57.53125 9.953125 57.484375 9.882812 C 57.464844 9.847656 57.445312 9.820312 57.433594 9.804688 C 57.429688 9.792969 57.421875 9.785156 57.421875 9.78125 L 57.394531 9.792969 L 57.421875 9.785156 C 57.421875 9.78125 57.421875 9.78125 57.421875 9.78125 L 57.394531 9.792969 L 57.421875 9.785156 L 57.371094 9.800781 L 57.421875 9.789062 C 57.421875 9.785156 57.421875 9.785156 57.421875 9.785156 L 57.371094 9.800781 L 57.421875 9.789062 L 57.367188 9.804688 L 57.425781 9.804688 C 57.425781 9.796875 57.425781 9.792969 57.421875 9.789062 L 57.367188 9.804688 L 57.425781 9.804688 L 57.296875 9.804688 "/>
<path style=" stroke:none;fill-rule:nonzero;fill:rgb(100%,56.858826%,30.198669%);fill-opacity:1;" d="M 53.21875 11.289062 C 53.21875 11.289062 53.214844 11.300781 53.214844 11.316406 C 53.214844 11.421875 53.234375 11.8125 53.472656 12.253906 C 53.59375 12.476562 53.769531 12.710938 54.027344 12.929688 C 54.285156 13.144531 54.621094 13.34375 55.0625 13.496094 L 55.105469 13.378906 C 54.675781 13.230469 54.355469 13.039062 54.109375 12.832031 C 53.742188 12.523438 53.550781 12.179688 53.453125 11.894531 C 53.351562 11.609375 53.34375 11.382812 53.34375 11.316406 C 53.34375 11.308594 53.34375 11.304688 53.34375 11.300781 L 53.34375 11.296875 L 53.21875 11.289062 "/>
<g clip-path="url(#clip14)" clip-rule="nonzero">
<path style=" stroke:none;fill-rule:nonzero;fill:rgb(100%,56.858826%,30.198669%);fill-opacity:1;" d="M 51.683594 12.34375 C 51.679688 12.332031 51.519531 11.839844 51.519531 11.234375 C 51.519531 11.007812 51.539062 10.769531 51.597656 10.53125 C 51.660156 10.292969 51.757812 10.054688 51.90625 9.839844 L 51.800781 9.765625 C 51.640625 10 51.539062 10.25 51.476562 10.5 C 51.414062 10.75 51.390625 11 51.390625 11.234375 C 51.390625 11.875 51.5625 12.382812 51.5625 12.386719 L 51.683594 12.34375 "/>
</g>
</g>
</svg>
