<?xml version="1.0" encoding="UTF-8"?>
<svg xmlns="http://www.w3.org/2000/svg" xmlns:xlink="http://www.w3.org/1999/xlink" width="75pt" height="74.999997pt" viewBox="0 0 75 74.999997" version="1.2">
<defs>
<clipPath id="clip1">
  <path d="M 48 34 L 53.816406 34 L 53.816406 49 L 48 49 Z M 48 34 "/>
</clipPath>
<clipPath id="clip2">
  <path d="M 25.316406 22 L 31 22 L 31 37 L 25.316406 37 Z M 25.316406 22 "/>
</clipPath>
<clipPath id="clip3">
  <path d="M 48 30 L 53.816406 30 L 53.816406 51.707031 L 48 51.707031 Z M 48 30 "/>
</clipPath>
<clipPath id="clip4">
  <path d="M 25.316406 18.707031 L 31 18.707031 L 31 41 L 25.316406 41 Z M 25.316406 18.707031 "/>
</clipPath>
<clipPath id="clip5">
  <path d="M 12.648438 37.5 L 42.589844 37.5 L 42.589844 65.25 L 12.648438 65.25 Z M 12.648438 37.5 "/>
</clipPath>
<clipPath id="clip6">
  <path d="M 36 48 L 42.589844 48 L 42.589844 53 L 36 53 Z M 36 48 "/>
</clipPath>
<clipPath id="clip7">
  <path d="M 41.425781 10.796875 L 65.089844 10.796875 L 65.089844 34.046875 L 41.425781 34.046875 Z M 41.425781 10.796875 "/>
</clipPath>
</defs>
<g id="surface1">
<path style=" stroke:none;fill-rule:nonzero;fill:rgb(100%,8.628845%,8.628845%);fill-opacity:1;" d="M 37.925781 44.003906 L 33.539062 44.003906 L 33.539062 29.707031 L 37.925781 29.707031 L 37.925781 44.003906 "/>
<path style=" stroke:none;fill-rule:nonzero;fill:rgb(54.508972%,81.568909%,16.079712%);fill-opacity:1;" d="M 45.597656 41.804688 L 41.210938 41.804688 L 41.210938 27.507812 L 45.597656 27.507812 L 45.597656 41.804688 "/>
<g clip-path="url(#clip1)" clip-rule="nonzero">
<path style=" stroke:none;fill-rule:nonzero;fill:rgb(100%,8.628845%,8.628845%);fill-opacity:1;" d="M 53.269531 48.402344 L 48.886719 48.402344 L 48.886719 34.105469 L 53.269531 34.105469 L 53.269531 48.402344 "/>
</g>
<g clip-path="url(#clip2)" clip-rule="nonzero">
<path style=" stroke:none;fill-rule:nonzero;fill:rgb(54.508972%,81.568909%,16.079712%);fill-opacity:1;" d="M 30.25 36.855469 L 25.867188 36.855469 L 25.867188 22.558594 L 30.25 22.558594 L 30.25 36.855469 "/>
</g>
<path style=" stroke:none;fill-rule:nonzero;fill:rgb(6.269836%,5.879211%,5.099487%);fill-opacity:1;" d="M 37.375 30.257812 L 37.375 43.453125 L 34.085938 43.453125 L 34.085938 30.257812 Z M 35.730469 25.859375 C 35.429688 25.859375 35.183594 26.105469 35.183594 26.410156 L 35.183594 29.15625 L 33.539062 29.15625 C 33.238281 29.15625 32.992188 29.40625 32.992188 29.707031 L 32.992188 44.003906 C 32.992188 44.308594 33.238281 44.554688 33.539062 44.554688 L 35.183594 44.554688 L 35.183594 46.753906 C 35.183594 47.054688 35.429688 47.304688 35.730469 47.304688 C 36.035156 47.304688 36.28125 47.054688 36.28125 46.753906 L 36.28125 44.554688 L 37.925781 44.554688 C 38.226562 44.554688 38.472656 44.308594 38.472656 44.003906 L 38.472656 29.707031 C 38.472656 29.40625 38.226562 29.15625 37.925781 29.15625 L 36.28125 29.15625 L 36.28125 26.410156 C 36.28125 26.105469 36.035156 25.859375 35.730469 25.859375 "/>
<path style=" stroke:none;fill-rule:nonzero;fill:rgb(6.269836%,5.879211%,5.099487%);fill-opacity:1;" d="M 45.050781 28.058594 L 45.050781 41.253906 L 41.761719 41.253906 L 41.761719 28.058594 Z M 43.40625 23.660156 C 43.101562 23.660156 42.855469 23.90625 42.855469 24.210938 L 42.855469 26.957031 L 41.210938 26.957031 C 40.910156 26.957031 40.664062 27.207031 40.664062 27.507812 L 40.664062 41.804688 C 40.664062 42.109375 40.910156 42.355469 41.210938 42.355469 L 42.855469 42.355469 L 42.855469 44.554688 C 42.855469 44.855469 43.101562 45.105469 43.40625 45.105469 C 43.707031 45.105469 43.953125 44.855469 43.953125 44.554688 L 43.953125 42.355469 L 45.597656 42.355469 C 45.898438 42.355469 46.144531 42.109375 46.144531 41.804688 L 46.144531 27.507812 C 46.144531 27.207031 45.898438 26.957031 45.597656 26.957031 L 43.953125 26.957031 L 43.953125 24.210938 C 43.953125 23.90625 43.707031 23.660156 43.40625 23.660156 "/>
<g clip-path="url(#clip3)" clip-rule="nonzero">
<path style=" stroke:none;fill-rule:nonzero;fill:rgb(6.269836%,5.879211%,5.099487%);fill-opacity:1;" d="M 52.722656 34.65625 L 52.722656 47.851562 L 49.433594 47.851562 L 49.433594 34.65625 Z M 51.078125 30.257812 C 50.777344 30.257812 50.53125 30.503906 50.53125 30.808594 L 50.53125 33.558594 L 48.886719 33.558594 C 48.582031 33.558594 48.335938 33.804688 48.335938 34.105469 L 48.335938 48.402344 C 48.335938 48.707031 48.582031 48.953125 48.886719 48.953125 L 50.53125 48.953125 L 50.53125 51.152344 C 50.53125 51.453125 50.777344 51.703125 51.078125 51.703125 C 51.378906 51.703125 51.625 51.453125 51.625 51.152344 L 51.625 48.953125 L 53.269531 48.953125 C 53.570312 48.953125 53.816406 48.707031 53.816406 48.402344 L 53.816406 34.105469 C 53.816406 33.804688 53.570312 33.558594 53.269531 33.558594 L 51.625 33.558594 L 51.625 30.808594 C 51.625 30.503906 51.378906 30.257812 51.078125 30.257812 "/>
</g>
<g clip-path="url(#clip4)" clip-rule="nonzero">
<path style=" stroke:none;fill-rule:nonzero;fill:rgb(6.269836%,5.879211%,5.099487%);fill-opacity:1;" d="M 29.703125 23.109375 L 29.703125 36.304688 L 26.414062 36.304688 L 26.414062 23.109375 Z M 28.058594 18.710938 C 27.757812 18.710938 27.511719 18.957031 27.511719 19.261719 L 27.511719 22.011719 L 25.867188 22.011719 C 25.5625 22.011719 25.316406 22.257812 25.316406 22.558594 L 25.316406 36.855469 C 25.316406 37.160156 25.5625 37.40625 25.867188 37.40625 L 27.511719 37.40625 L 27.511719 39.605469 C 27.511719 39.90625 27.757812 40.15625 28.058594 40.15625 C 28.359375 40.15625 28.605469 39.90625 28.605469 39.605469 L 28.605469 37.40625 L 30.25 37.40625 C 30.550781 37.40625 30.800781 37.160156 30.800781 36.855469 L 30.800781 22.558594 C 30.800781 22.257812 30.550781 22.011719 30.25 22.011719 L 28.605469 22.011719 L 28.605469 19.261719 C 28.605469 18.957031 28.359375 18.710938 28.058594 18.710938 "/>
</g>
<g clip-path="url(#clip5)" clip-rule="nonzero">
<path style=" stroke:none;fill-rule:nonzero;fill:rgb(54.508972%,81.568909%,16.079712%);fill-opacity:1;" d="M 40.65625 56.507812 C 40.710938 56.546875 40.742188 56.566406 40.742188 56.566406 C 40.742188 56.566406 40.707031 56.558594 40.640625 56.535156 C 40.578125 56.511719 40.492188 56.460938 40.402344 56.382812 C 40.316406 56.308594 40.230469 56.203125 40.128906 56.132812 C 40.03125 56.058594 39.910156 56.054688 39.777344 56.09375 C 39.742188 56.105469 39.710938 56.113281 39.6875 56.125 C 39.671875 56.132812 39.652344 56.152344 39.644531 56.167969 C 39.625 56.199219 39.625 56.25 39.640625 56.300781 C 39.679688 56.40625 39.773438 56.488281 39.863281 56.527344 C 39.957031 56.574219 40.046875 56.582031 40.113281 56.582031 C 40.175781 56.582031 40.214844 56.574219 40.214844 56.574219 C 40.214844 56.574219 40.183594 56.597656 40.117188 56.617188 C 40.054688 56.640625 39.953125 56.660156 39.828125 56.632812 C 39.710938 56.601562 39.570312 56.519531 39.492188 56.363281 C 39.457031 56.289062 39.4375 56.175781 39.496094 56.078125 C 39.523438 56.03125 39.5625 55.996094 39.609375 55.96875 C 39.652344 55.945312 39.695312 55.9375 39.734375 55.925781 C 39.8125 55.90625 39.898438 55.890625 39.988281 55.90625 C 40.074219 55.917969 40.160156 55.960938 40.21875 56.011719 C 40.339844 56.121094 40.402344 56.234375 40.472656 56.316406 C 40.539062 56.40625 40.605469 56.46875 40.65625 56.507812 Z M 40.847656 51.539062 C 40.796875 51.5625 40.714844 51.597656 40.625 51.625 C 40.492188 51.671875 40.203125 51.757812 39.816406 51.8125 C 39.792969 51.816406 39.769531 51.820312 39.746094 51.824219 C 39.722656 51.828125 39.699219 51.832031 39.675781 51.832031 C 39.546875 51.847656 39.40625 51.855469 39.261719 51.863281 C 39.222656 51.863281 39.1875 51.863281 39.152344 51.867188 C 39.023438 51.867188 38.902344 51.867188 38.792969 51.867188 C 38.695312 51.867188 38.605469 51.867188 38.519531 51.867188 L 38.472656 51.867188 C 38.183594 51.871094 37.976562 51.882812 37.875 51.914062 C 37.863281 51.917969 37.855469 51.921875 37.847656 51.925781 C 37.8125 51.945312 37.78125 51.976562 37.738281 52.011719 C 37.664062 52.082031 37.550781 52.179688 37.375 52.257812 L 37.359375 52.265625 C 37.34375 52.273438 37.332031 52.28125 37.316406 52.285156 C 37.304688 52.289062 37.292969 52.296875 37.28125 52.300781 L 37.257812 52.304688 C 37.234375 52.3125 37.210938 52.316406 37.1875 52.324219 C 37.078125 52.351562 36.960938 52.375 36.828125 52.378906 C 36.632812 52.386719 36.484375 52.359375 36.371094 52.320312 C 36.34375 52.3125 36.320312 52.304688 36.300781 52.292969 C 36.273438 52.28125 36.25 52.269531 36.226562 52.257812 C 36.164062 52.222656 36.117188 52.183594 36.089844 52.152344 C 36.03125 52.089844 36.003906 52.027344 36.003906 51.988281 C 36.105469 51.890625 36.210938 51.804688 36.3125 51.722656 C 36.371094 51.675781 36.429688 51.632812 36.484375 51.59375 C 36.523438 51.566406 36.5625 51.539062 36.601562 51.511719 C 36.628906 51.492188 36.65625 51.476562 36.683594 51.457031 C 37.011719 51.253906 37.324219 51.132812 37.617188 51.097656 L 37.625 51.097656 L 37.636719 51.09375 C 37.644531 51.09375 37.652344 51.09375 37.660156 51.09375 C 37.667969 51.089844 37.675781 51.089844 37.683594 51.089844 C 37.707031 51.085938 37.730469 51.085938 37.75 51.082031 C 37.792969 51.078125 37.832031 51.074219 37.871094 51.070312 C 38.058594 51.054688 38.234375 51.039062 38.40625 51.027344 L 38.417969 51.027344 C 38.449219 51.023438 38.484375 51.023438 38.515625 51.019531 C 38.550781 51.015625 38.582031 51.015625 38.617188 51.011719 C 39.101562 50.976562 39.542969 50.925781 40.03125 50.761719 C 40.261719 50.683594 40.484375 50.582031 40.71875 50.457031 C 42.089844 49.726562 42.246094 48.492188 42.261719 48.128906 C 42.265625 48.101562 42.269531 48.085938 42.269531 48.074219 C 42.332031 48.113281 42.472656 48.386719 42.519531 48.824219 C 42.578125 49.355469 42.527344 50.683594 40.847656 51.539062 Z M 35.285156 62.417969 L 35.296875 62.40625 C 35.242188 62.589844 35.152344 62.707031 35.023438 62.871094 L 35.011719 62.886719 C 34.992188 62.914062 34.96875 62.945312 34.945312 62.976562 C 34.9375 62.984375 34.929688 62.992188 34.921875 63.003906 C 34.785156 63.1875 34.617188 63.308594 34.457031 63.414062 C 34.421875 63.4375 34.382812 63.472656 34.34375 63.503906 C 34.316406 63.527344 34.28125 63.558594 34.253906 63.578125 C 34.238281 63.519531 34.214844 63.417969 34.191406 63.269531 C 34.199219 63.253906 34.214844 63.238281 34.230469 63.222656 C 34.265625 63.1875 34.3125 63.15625 34.367188 63.132812 C 34.394531 63.117188 34.425781 63.105469 34.457031 63.097656 C 34.484375 63.085938 34.519531 63.074219 34.558594 63.0625 L 34.621094 63.042969 C 34.644531 63.035156 34.664062 63.019531 34.6875 63.007812 C 34.714844 62.988281 34.738281 62.964844 34.761719 62.941406 C 34.769531 62.933594 34.777344 62.925781 34.785156 62.914062 C 34.796875 62.898438 34.804688 62.886719 34.816406 62.871094 C 34.828125 62.851562 34.839844 62.832031 34.847656 62.8125 L 34.855469 62.792969 C 34.867188 62.765625 34.878906 62.742188 34.882812 62.714844 C 34.917969 62.59375 34.898438 62.507812 34.898438 62.507812 C 34.898438 62.507812 34.839844 62.570312 34.765625 62.652344 C 34.742188 62.675781 34.71875 62.703125 34.695312 62.726562 C 34.675781 62.746094 34.660156 62.761719 34.640625 62.777344 L 34.625 62.789062 C 34.605469 62.800781 34.589844 62.816406 34.570312 62.828125 C 34.5625 62.832031 34.554688 62.835938 34.542969 62.839844 L 34.519531 62.851562 L 34.515625 62.855469 L 34.492188 62.863281 C 34.457031 62.875 34.417969 62.886719 34.378906 62.910156 C 34.335938 62.933594 34.304688 62.953125 34.269531 62.980469 C 34.226562 63.015625 34.191406 63.0625 34.164062 63.105469 C 34.160156 63.089844 34.160156 63.082031 34.15625 63.066406 C 34.121094 62.800781 34.089844 62.472656 34.0625 62.167969 C 34.054688 62.074219 34.050781 61.984375 34.042969 61.898438 C 34.035156 61.820312 34.03125 61.746094 34.027344 61.683594 C 34.023438 61.636719 34.015625 61.589844 34.011719 61.539062 C 34.003906 61.507812 34.003906 61.480469 34 61.453125 C 33.984375 61.3125 33.996094 61.253906 34.074219 61.230469 C 34.152344 61.203125 34.230469 61.183594 34.308594 61.167969 C 34.375 61.152344 34.4375 61.140625 34.5 61.132812 L 34.386719 61.230469 L 34.519531 61.238281 L 34.574219 61.292969 L 34.582031 61.296875 C 34.566406 61.308594 34.558594 61.324219 34.554688 61.332031 C 34.546875 61.34375 34.546875 61.339844 34.53125 61.347656 L 34.375 61.398438 L 34.503906 61.503906 C 34.523438 61.515625 34.554688 61.53125 34.582031 61.542969 C 34.578125 61.566406 34.578125 61.582031 34.574219 61.589844 L 34.640625 61.625 L 34.664062 61.714844 L 34.679688 61.714844 C 34.675781 61.746094 34.679688 61.757812 34.683594 61.765625 L 34.703125 61.828125 L 34.730469 61.828125 C 34.761719 61.863281 34.8125 61.953125 34.851562 62.023438 L 34.890625 62.097656 L 34.941406 62.074219 L 34.9375 62.128906 L 34.988281 62.15625 C 35.027344 62.175781 35.066406 62.171875 35.097656 62.160156 L 35.101562 62.164062 L 35.121094 62.253906 L 35.125 62.253906 L 35.121094 62.261719 L 35.207031 62.332031 L 35.246094 62.3125 L 35.257812 62.34375 Z M 39.347656 57.441406 C 39.261719 57.394531 39.152344 57.335938 39.046875 57.242188 C 38.984375 57.1875 38.925781 57.109375 38.835938 57.042969 C 38.792969 57.011719 38.746094 56.980469 38.699219 56.957031 C 38.675781 56.945312 38.652344 56.933594 38.636719 56.921875 C 38.621094 56.90625 38.628906 56.914062 38.628906 56.910156 L 38.632812 56.90625 L 38.636719 56.886719 L 38.640625 56.882812 C 38.640625 56.882812 38.652344 56.878906 38.671875 56.875 C 38.707031 56.871094 38.761719 56.882812 38.796875 56.898438 C 38.878906 56.9375 38.941406 57.019531 39.007812 57.117188 C 39.078125 57.214844 39.167969 57.308594 39.265625 57.382812 C 39.292969 57.40625 39.320312 57.421875 39.347656 57.441406 Z M 40.980469 56.429688 C 40.964844 56.597656 40.929688 56.75 40.835938 56.867188 C 40.785156 56.929688 40.722656 57 40.671875 57.082031 C 40.617188 57.171875 40.59375 57.265625 40.566406 57.328125 C 40.558594 57.339844 40.546875 57.351562 40.539062 57.367188 C 40.464844 57.433594 40.339844 57.5 40.183594 57.523438 C 40.019531 57.542969 39.828125 57.507812 39.640625 57.417969 C 39.457031 57.328125 39.28125 57.191406 39.148438 57.011719 C 39.082031 56.921875 38.996094 56.804688 38.863281 56.75 C 38.789062 56.722656 38.730469 56.714844 38.652344 56.722656 C 38.613281 56.730469 38.570312 56.742188 38.53125 56.785156 C 38.515625 56.804688 38.503906 56.828125 38.496094 56.851562 L 38.492188 56.871094 C 38.492188 56.886719 38.488281 56.898438 38.488281 56.910156 C 38.488281 56.964844 38.535156 57.019531 38.5625 57.03125 C 38.59375 57.050781 38.621094 57.058594 38.644531 57.070312 C 38.695312 57.089844 38.738281 57.109375 38.777344 57.132812 C 38.863281 57.175781 38.925781 57.242188 39.003906 57.296875 C 39.15625 57.402344 39.292969 57.449219 39.390625 57.488281 C 39.429688 57.503906 39.464844 57.515625 39.488281 57.523438 C 39.515625 57.539062 39.546875 57.554688 39.574219 57.566406 C 39.789062 57.65625 40.023438 57.675781 40.203125 57.628906 C 40.246094 57.617188 40.285156 57.601562 40.320312 57.585938 C 40.292969 57.601562 40.269531 57.617188 40.238281 57.632812 C 40.097656 57.699219 39.933594 57.734375 39.769531 57.742188 C 39.730469 57.746094 39.683594 57.75 39.644531 57.75 C 39.605469 57.746094 39.566406 57.75 39.53125 57.738281 C 39.453125 57.726562 39.378906 57.691406 39.304688 57.65625 C 39.15625 57.582031 39.015625 57.488281 38.867188 57.390625 C 38.71875 57.296875 38.550781 57.230469 38.457031 57.097656 C 38.359375 56.964844 38.40625 56.78125 38.460938 56.625 C 38.484375 56.542969 38.539062 56.488281 38.609375 56.488281 C 38.679688 56.484375 38.757812 56.519531 38.828125 56.558594 C 38.902344 56.597656 38.96875 56.648438 39.035156 56.699219 L 39.0625 56.722656 L 39.082031 56.734375 L 39.089844 56.738281 L 39.09375 56.738281 C 39.089844 56.738281 39.113281 56.75 39.144531 56.742188 C 39.175781 56.734375 39.1875 56.699219 39.1875 56.695312 L 39.1875 56.691406 C 39.179688 56.683594 39.167969 56.675781 39.15625 56.667969 C 39.140625 56.648438 39.121094 56.628906 39.105469 56.609375 L 39.089844 56.59375 C 39.082031 56.585938 39.074219 56.574219 39.070312 56.566406 C 39.035156 56.523438 39.003906 56.476562 38.972656 56.421875 C 38.957031 56.386719 38.941406 56.351562 38.925781 56.316406 C 38.910156 56.277344 38.902344 56.234375 38.890625 56.195312 C 38.882812 56.152344 38.882812 56.097656 38.878906 56.050781 L 38.890625 55.988281 L 38.890625 55.972656 L 38.894531 55.957031 L 38.898438 55.949219 L 38.910156 55.917969 C 38.925781 55.878906 38.945312 55.839844 38.964844 55.800781 C 38.992188 55.757812 39.019531 55.71875 39.054688 55.679688 C 39.121094 55.613281 39.199219 55.554688 39.289062 55.523438 C 39.332031 55.503906 39.375 55.492188 39.421875 55.488281 C 39.464844 55.476562 39.507812 55.46875 39.546875 55.472656 C 39.589844 55.472656 39.617188 55.464844 39.667969 55.472656 C 39.707031 55.476562 39.746094 55.484375 39.785156 55.488281 C 39.855469 55.507812 39.925781 55.527344 39.984375 55.558594 C 39.996094 55.5625 40.003906 55.566406 40.015625 55.570312 C 40.023438 55.574219 40.03125 55.582031 40.039062 55.585938 L 40.058594 55.59375 C 40.140625 55.582031 40.226562 55.558594 40.304688 55.535156 C 40.394531 55.503906 40.492188 55.519531 40.578125 55.558594 C 40.695312 55.683594 40.804688 55.816406 40.886719 55.964844 C 40.925781 56.035156 40.957031 56.113281 40.972656 56.191406 C 40.980469 56.230469 40.984375 56.269531 40.984375 56.308594 C 40.984375 56.351562 40.980469 56.386719 40.980469 56.429688 Z M 38.265625 53.890625 C 38.195312 53.800781 38.128906 53.707031 38.066406 53.601562 C 38.007812 53.5 37.953125 53.390625 37.894531 53.296875 C 37.777344 53.101562 37.625 52.9375 37.4375 52.875 C 37.347656 52.839844 37.253906 52.832031 37.167969 52.84375 C 37.082031 52.855469 37.003906 52.890625 36.9375 52.933594 C 36.800781 53.027344 36.707031 53.140625 36.644531 53.222656 C 36.585938 53.304688 36.550781 53.355469 36.550781 53.355469 C 36.550781 53.355469 36.554688 53.339844 36.5625 53.3125 C 36.570312 53.285156 36.582031 53.246094 36.605469 53.199219 C 36.644531 53.101562 36.710938 52.957031 36.855469 52.828125 C 36.929688 52.765625 37.023438 52.707031 37.140625 52.683594 C 37.253906 52.65625 37.378906 52.667969 37.496094 52.710938 C 37.613281 52.746094 37.726562 52.824219 37.8125 52.910156 C 37.902344 53.003906 37.976562 53.105469 38.035156 53.214844 C 38.097656 53.320312 38.140625 53.429688 38.195312 53.53125 C 38.246094 53.632812 38.304688 53.726562 38.367188 53.816406 C 38.488281 53.992188 38.636719 54.128906 38.78125 54.21875 C 38.855469 54.261719 38.925781 54.300781 38.996094 54.320312 C 39.0625 54.34375 39.121094 54.355469 39.171875 54.363281 C 39.222656 54.375 39.265625 54.378906 39.292969 54.378906 C 39.320312 54.382812 39.332031 54.382812 39.332031 54.382812 C 39.332031 54.382812 39.320312 54.382812 39.292969 54.386719 C 39.261719 54.386719 39.222656 54.390625 39.171875 54.390625 C 39.117188 54.390625 39.054688 54.382812 38.980469 54.367188 C 38.910156 54.351562 38.832031 54.324219 38.746094 54.285156 C 38.582031 54.207031 38.410156 54.066406 38.265625 53.890625 Z M 38.085938 54.054688 C 37.953125 53.992188 37.828125 53.953125 37.722656 53.769531 C 37.71875 53.796875 37.707031 53.824219 37.6875 53.847656 C 37.648438 53.894531 37.585938 53.917969 37.515625 53.914062 C 37.484375 53.898438 37.457031 53.886719 37.425781 53.871094 C 37.371094 53.839844 37.3125 53.808594 37.257812 53.769531 C 37.171875 53.664062 37.148438 53.53125 37.21875 53.449219 C 37.234375 53.429688 37.257812 53.414062 37.28125 53.40625 C 37.171875 53.367188 37.054688 53.363281 36.953125 53.441406 C 37.140625 53.203125 37.410156 53.339844 37.566406 53.445312 C 37.648438 53.503906 37.734375 53.59375 37.785156 53.6875 C 37.890625 53.882812 37.976562 53.980469 38.113281 54.046875 C 38.113281 54.046875 38.105469 54.050781 38.085938 54.054688 Z M 35.5625 53.679688 C 35.488281 53.734375 35.410156 53.78125 35.328125 53.824219 C 35.246094 53.871094 35.160156 53.90625 35.074219 53.941406 C 34.898438 54.003906 34.71875 54.046875 34.542969 54.09375 C 34.183594 54.183594 33.816406 54.253906 33.441406 54.234375 C 33.347656 54.230469 33.253906 54.222656 33.164062 54.203125 C 33.070312 54.1875 32.980469 54.164062 32.890625 54.132812 C 32.714844 54.078125 32.542969 53.996094 32.382812 53.90625 C 32.359375 53.894531 32.351562 53.867188 32.367188 53.847656 L 32.382812 53.828125 C 32.695312 53.667969 32.996094 53.476562 33.257812 53.242188 C 33.320312 53.183594 33.382812 53.121094 33.4375 53.054688 C 33.496094 52.992188 33.550781 52.914062 33.613281 52.851562 C 33.738281 52.71875 33.878906 52.605469 34.03125 52.503906 C 34.328125 52.308594 34.667969 52.15625 35.027344 52.125 C 35.121094 52.121094 35.210938 52.121094 35.300781 52.136719 C 35.386719 52.148438 35.476562 52.175781 35.558594 52.203125 C 35.644531 52.230469 35.726562 52.265625 35.808594 52.304688 C 35.886719 52.34375 35.964844 52.386719 36.035156 52.445312 C 35.960938 52.390625 35.882812 52.347656 35.800781 52.3125 C 35.71875 52.28125 35.636719 52.246094 35.550781 52.226562 C 35.464844 52.199219 35.382812 52.175781 35.296875 52.167969 C 35.207031 52.160156 35.121094 52.160156 35.03125 52.167969 C 34.683594 52.207031 34.355469 52.363281 34.070312 52.5625 C 33.925781 52.664062 33.789062 52.777344 33.671875 52.902344 C 33.609375 52.96875 33.558594 53.035156 33.5 53.105469 C 33.441406 53.175781 33.378906 53.238281 33.3125 53.300781 C 33.066406 53.527344 32.789062 53.707031 32.496094 53.867188 C 32.632812 53.9375 32.773438 54.003906 32.917969 54.054688 C 33.003906 54.082031 33.089844 54.105469 33.179688 54.121094 C 33.265625 54.140625 33.355469 54.152344 33.445312 54.15625 C 33.808594 54.175781 34.167969 54.105469 34.523438 54.027344 C 34.703125 53.984375 34.882812 53.941406 35.054688 53.886719 C 35.140625 53.855469 35.222656 53.824219 35.304688 53.78125 C 35.386719 53.742188 35.464844 53.695312 35.539062 53.640625 C 35.839844 53.4375 36.078125 53.144531 36.234375 52.8125 C 36.09375 53.152344 35.863281 53.457031 35.5625 53.679688 Z M 36.175781 52.726562 C 36.207031 52.742188 36.105469 52.933594 35.878906 53.203125 C 35.515625 53.640625 34.796875 53.828125 34.09375 53.96875 C 33.390625 54.105469 32.851562 53.917969 32.851562 53.917969 C 32.851562 53.917969 33.242188 53.695312 34.171875 52.933594 C 35.097656 52.175781 36.019531 52.644531 36.019531 52.644531 C 36.046875 52.65625 36.089844 52.683594 36.175781 52.726562 Z M 41.085938 56.160156 C 41.054688 56.070312 41.007812 55.992188 40.957031 55.917969 C 40.851562 55.773438 40.722656 55.65625 40.59375 55.539062 L 40.59375 55.535156 L 40.589844 55.535156 C 40.582031 55.53125 40.570312 55.527344 40.5625 55.527344 C 40.554688 55.523438 40.546875 55.523438 40.539062 55.519531 C 40.476562 55.457031 40.40625 55.394531 40.34375 55.328125 C 40.183594 55.175781 40.023438 55.019531 39.914062 54.824219 C 39.777344 54.5625 39.6875 54.28125 39.589844 54.003906 C 39.492188 53.726562 39.394531 53.449219 39.28125 53.175781 C 39.207031 53 39.125 52.828125 39.035156 52.660156 C 39.027344 52.644531 39.019531 52.628906 39.011719 52.613281 C 39.003906 52.597656 38.996094 52.582031 38.984375 52.570312 C 38.976562 52.554688 38.96875 52.539062 38.957031 52.523438 C 38.839844 52.320312 38.707031 52.132812 38.550781 51.957031 C 38.214844 51.957031 37.964844 51.964844 37.886719 52.007812 C 37.863281 52.019531 37.835938 52.046875 37.796875 52.078125 C 37.726562 52.144531 37.628906 52.234375 37.476562 52.3125 C 37.460938 52.320312 37.441406 52.328125 37.425781 52.335938 C 37.40625 52.34375 37.386719 52.351562 37.367188 52.359375 C 37.347656 52.367188 37.332031 52.375 37.3125 52.382812 L 37.308594 52.382812 C 37.167969 52.433594 37.007812 52.460938 36.832031 52.46875 C 36.539062 52.480469 36.339844 52.421875 36.207031 52.347656 C 36.183594 52.335938 36.164062 52.324219 36.144531 52.308594 C 36.117188 52.292969 36.097656 52.277344 36.078125 52.261719 C 36.058594 52.246094 36.039062 52.226562 36.023438 52.210938 C 35.949219 52.128906 35.90625 52.035156 35.914062 51.960938 L 35.917969 51.945312 L 35.929688 51.9375 C 35.960938 51.90625 35.996094 51.878906 36.027344 51.847656 C 36.054688 51.816406 36.085938 51.78125 36.128906 51.746094 C 36.195312 51.683594 36.277344 51.609375 36.367188 51.539062 C 36.414062 51.5 36.460938 51.464844 36.515625 51.433594 C 36.5625 51.402344 36.609375 51.371094 36.660156 51.339844 L 36.671875 51.332031 C 36.703125 51.316406 36.738281 51.296875 36.773438 51.277344 C 36.792969 51.265625 36.816406 51.257812 36.835938 51.246094 C 36.871094 51.222656 36.914062 51.207031 36.953125 51.195312 C 36.96875 51.1875 36.984375 51.183594 37 51.175781 C 37.054688 51.15625 37.105469 51.132812 37.160156 51.121094 L 37.164062 51.121094 C 37.289062 51.074219 37.410156 51.042969 37.53125 51.023438 C 37.5 51 37.472656 50.976562 37.441406 50.957031 C 37.429688 50.945312 37.414062 50.933594 37.398438 50.921875 C 37.386719 50.910156 37.371094 50.902344 37.355469 50.890625 C 37.226562 50.792969 37.089844 50.703125 36.949219 50.621094 C 36.929688 50.605469 36.90625 50.59375 36.886719 50.582031 C 36.871094 50.574219 36.855469 50.5625 36.84375 50.554688 C 36.828125 50.546875 36.8125 50.539062 36.800781 50.53125 C 36.34375 50.257812 35.890625 49.980469 35.460938 49.667969 C 34.984375 49.324219 34.527344 48.949219 34.023438 48.652344 C 33.519531 48.347656 32.972656 48.117188 32.394531 48.023438 C 31.820312 47.925781 31.226562 47.957031 30.652344 48.054688 C 30.074219 48.15625 29.507812 48.3125 28.949219 48.496094 C 28.808594 48.539062 28.667969 48.589844 28.535156 48.632812 C 28.394531 48.6875 28.257812 48.738281 28.128906 48.804688 C 27.871094 48.933594 27.621094 49.089844 27.390625 49.265625 C 26.933594 49.625 26.535156 50.0625 26.183594 50.527344 C 25.859375 50.949219 25.5625 51.394531 25.269531 51.839844 L 25.269531 46.265625 L 30.078125 46.265625 L 21.3125 37.496094 L 12.542969 46.265625 L 17.351562 46.265625 L 17.351562 65.300781 L 25.269531 65.300781 L 25.269531 63.457031 C 25.355469 63.445312 25.441406 63.429688 25.527344 63.414062 C 25.585938 63.402344 25.640625 63.394531 25.699219 63.382812 C 25.753906 63.367188 25.8125 63.351562 25.871094 63.339844 C 26.125 63.277344 26.382812 63.207031 26.652344 63.117188 C 27.183594 62.933594 27.71875 62.695312 28.238281 62.402344 C 29.453125 61.722656 30.34375 61.027344 30.921875 60.304688 L 30.90625 60.300781 L 30.894531 60.289062 L 30.632812 60.0625 C 30.546875 59.988281 30.457031 59.914062 30.367188 59.839844 C 30.324219 59.804688 30.277344 59.765625 30.234375 59.734375 L 30.097656 59.628906 C 30.007812 59.558594 29.917969 59.488281 29.824219 59.421875 L 29.679688 59.320312 C 29.632812 59.285156 29.589844 59.257812 29.542969 59.226562 C 29.445312 59.171875 29.34375 59.117188 29.242188 59.058594 C 29.1875 59.03125 29.136719 59 29.085938 58.964844 C 29.039062 58.933594 28.984375 58.886719 28.9375 58.851562 L 28.875 58.789062 C 28.851562 58.765625 28.832031 58.738281 28.8125 58.714844 C 28.792969 58.6875 28.777344 58.664062 28.761719 58.640625 C 28.378906 58.925781 27.992188 59.199219 27.585938 59.449219 C 27.46875 59.519531 27.347656 59.589844 27.230469 59.65625 C 27.203125 59.671875 27.175781 59.691406 27.148438 59.707031 C 27.117188 59.722656 27.089844 59.742188 27.058594 59.757812 C 27.015625 59.78125 26.972656 59.808594 26.929688 59.832031 C 26.707031 59.953125 26.480469 60.070312 26.25 60.175781 C 26.019531 60.285156 25.785156 60.382812 25.550781 60.472656 L 25.269531 60.574219 L 25.269531 60.398438 L 25.492188 60.320312 C 25.722656 60.230469 25.953125 60.132812 26.179688 60.027344 C 26.40625 59.917969 26.628906 59.804688 26.851562 59.6875 C 26.914062 59.652344 26.980469 59.609375 27.042969 59.574219 C 27.074219 59.558594 27.101562 59.539062 27.128906 59.523438 C 27.15625 59.507812 27.183594 59.492188 27.210938 59.476562 C 27.308594 59.417969 27.402344 59.367188 27.5 59.308594 C 27.90625 59.050781 28.304688 58.773438 28.691406 58.484375 C 28.589844 58.351562 28.503906 58.210938 28.441406 58.066406 C 28.390625 57.953125 28.347656 57.835938 28.308594 57.71875 C 28.292969 57.679688 28.28125 57.644531 28.269531 57.605469 C 28.265625 57.59375 28.261719 57.578125 28.257812 57.566406 C 28.25 57.542969 28.246094 57.519531 28.242188 57.496094 C 28.203125 57.355469 28.175781 57.210938 28.15625 57.078125 C 28.136719 56.917969 28.128906 56.769531 28.132812 56.632812 C 28.132812 56.355469 28.183594 56.128906 28.226562 55.972656 C 28.273438 55.820312 28.3125 55.738281 28.3125 55.738281 C 28.3125 55.738281 28.285156 55.824219 28.257812 55.980469 C 28.230469 56.136719 28.214844 56.363281 28.230469 56.628906 C 28.234375 56.761719 28.253906 56.90625 28.28125 57.058594 C 28.308594 57.207031 28.355469 57.363281 28.40625 57.519531 C 28.410156 57.539062 28.417969 57.558594 28.425781 57.574219 C 28.4375 57.613281 28.453125 57.652344 28.46875 57.691406 C 28.480469 57.726562 28.496094 57.765625 28.511719 57.804688 C 28.539062 57.871094 28.566406 57.933594 28.59375 57.996094 C 28.667969 58.15625 28.757812 58.300781 28.871094 58.433594 C 29.089844 58.703125 29.386719 58.898438 29.671875 59.082031 C 29.816406 59.171875 29.957031 59.265625 30.078125 59.367188 C 30.160156 59.4375 30.234375 59.503906 30.300781 59.570312 L 30.339844 59.601562 C 30.386719 59.636719 30.429688 59.671875 30.476562 59.710938 C 30.5625 59.785156 30.65625 59.855469 30.742188 59.933594 L 30.996094 60.152344 C 31.007812 60.15625 31.019531 60.160156 31.03125 60.164062 C 31.058594 60.175781 31.089844 60.1875 31.117188 60.199219 C 31.148438 60.210938 31.175781 60.21875 31.203125 60.230469 C 31.332031 60.28125 31.460938 60.324219 31.59375 60.34375 C 31.640625 60.351562 31.695312 60.359375 31.742188 60.359375 C 31.800781 60.359375 31.855469 60.359375 31.902344 60.351562 C 32 60.34375 32.105469 60.320312 32.207031 60.292969 C 32.617188 60.167969 32.992188 59.9375 33.371094 59.714844 C 33.5625 59.601562 33.761719 59.496094 33.949219 59.390625 C 34.144531 59.28125 34.335938 59.175781 34.53125 59.070312 C 34.730469 58.96875 34.929688 58.867188 35.136719 58.78125 C 35.34375 58.695312 35.558594 58.621094 35.789062 58.585938 L 35.816406 58.585938 C 35.863281 58.589844 35.917969 58.636719 35.929688 58.679688 C 35.945312 58.722656 35.945312 58.753906 35.945312 58.78125 C 35.941406 58.839844 35.929688 58.886719 35.917969 58.929688 C 35.890625 59.023438 35.855469 59.105469 35.820312 59.1875 L 35.609375 59.671875 C 35.519531 59.859375 35.367188 59.984375 35.226562 60.089844 C 35.089844 60.195312 34.960938 60.300781 34.886719 60.4375 C 34.871094 60.472656 34.882812 60.53125 34.921875 60.613281 C 34.933594 60.636719 34.945312 60.664062 34.953125 60.695312 L 34.957031 60.691406 L 34.957031 60.703125 C 34.960938 60.722656 34.96875 60.742188 34.972656 60.761719 C 34.972656 60.796875 34.972656 60.828125 34.964844 60.859375 C 34.957031 60.875 34.953125 60.894531 34.945312 60.90625 L 34.933594 60.9375 C 34.917969 60.96875 34.898438 60.996094 34.875 61.023438 C 34.867188 61.035156 34.855469 61.050781 34.828125 61.074219 L 35.445312 61.101562 L 34.820312 61.246094 C 34.816406 61.246094 34.796875 61.253906 34.769531 61.261719 C 34.789062 61.292969 34.792969 61.324219 34.785156 61.351562 C 34.78125 61.378906 34.765625 61.398438 34.746094 61.414062 L 34.777344 61.425781 L 34.769531 61.496094 C 34.765625 61.511719 34.765625 61.523438 34.765625 61.539062 C 34.777344 61.539062 34.785156 61.539062 34.792969 61.539062 L 34.902344 61.546875 L 34.871094 61.652344 C 34.867188 61.667969 34.863281 61.6875 34.859375 61.703125 C 34.886719 61.734375 34.921875 61.785156 34.96875 61.871094 C 35.023438 61.847656 35.085938 61.828125 35.136719 61.867188 L 35.171875 61.894531 L 35.175781 61.933594 L 35.328125 61.851562 L 35.289062 62.039062 C 35.285156 62.054688 35.28125 62.074219 35.28125 62.089844 L 35.363281 62.035156 L 35.375 62.078125 C 35.382812 62.070312 35.394531 62.0625 35.40625 62.054688 L 35.597656 61.953125 L 35.585938 61.988281 C 35.628906 61.976562 35.667969 61.96875 35.707031 61.957031 C 35.878906 61.910156 36.058594 61.894531 36.191406 61.820312 C 36.328125 61.746094 36.425781 61.613281 36.503906 61.460938 C 36.578125 61.316406 36.632812 61.148438 36.667969 60.984375 C 36.703125 60.820312 36.703125 60.648438 36.738281 60.464844 C 36.777344 60.277344 36.867188 60.109375 36.96875 59.960938 C 37.023438 59.886719 37.074219 59.816406 37.128906 59.746094 C 37.179688 59.671875 37.246094 59.601562 37.308594 59.539062 C 37.4375 59.414062 37.570312 59.296875 37.695312 59.179688 C 37.824219 59.058594 37.949219 58.9375 38.058594 58.804688 C 38.167969 58.675781 38.269531 58.535156 38.3125 58.382812 C 38.359375 58.230469 38.308594 58.074219 38.183594 57.972656 C 38.066406 57.871094 37.898438 57.820312 37.730469 57.773438 C 37.566406 57.71875 37.382812 57.675781 37.230469 57.558594 C 37.078125 57.433594 36.980469 57.289062 36.867188 57.15625 C 36.757812 57.027344 36.640625 56.890625 36.488281 56.847656 C 36.335938 56.8125 36.15625 56.824219 35.984375 56.839844 C 35.640625 56.875 35.296875 56.945312 34.953125 57.011719 C 34.605469 57.082031 34.261719 57.152344 33.910156 57.207031 L 33.824219 57.21875 L 33.863281 57.136719 C 33.90625 57.046875 33.949219 56.949219 33.988281 56.851562 C 34.023438 56.753906 34.066406 56.660156 34.097656 56.558594 L 34.191406 56.261719 C 34.214844 56.160156 34.238281 56.058594 34.25 55.957031 C 34.277344 55.753906 34.273438 55.542969 34.246094 55.339844 L 34.207031 55.027344 C 34.195312 54.921875 34.175781 54.820312 34.160156 54.714844 L 34.152344 54.679688 L 34.167969 54.675781 C 34.183594 54.621094 34.207031 54.566406 34.246094 54.519531 C 34.285156 54.464844 34.339844 54.421875 34.398438 54.394531 C 34.519531 54.332031 34.644531 54.3125 34.777344 54.316406 L 34.804688 54.316406 L 34.8125 54.347656 C 34.882812 54.773438 35.039062 55.191406 35.296875 55.546875 C 35.546875 55.898438 35.890625 56.183594 36.273438 56.398438 C 36.652344 56.613281 37.066406 56.761719 37.492188 56.878906 C 37.703125 56.941406 37.914062 56.984375 38.128906 57.046875 C 38.234375 57.078125 38.335938 57.121094 38.433594 57.167969 C 38.449219 57.183594 38.464844 57.199219 38.480469 57.214844 C 38.511719 57.246094 38.546875 57.269531 38.578125 57.292969 C 38.589844 57.300781 38.597656 57.308594 38.605469 57.3125 L 38.820312 57.460938 C 38.953125 57.5625 39.089844 57.675781 39.242188 57.769531 C 39.320312 57.816406 39.40625 57.855469 39.5 57.878906 C 39.542969 57.894531 39.59375 57.898438 39.640625 57.902344 C 39.6875 57.90625 39.726562 57.90625 39.777344 57.902344 C 39.957031 57.898438 40.136719 57.867188 40.3125 57.792969 C 40.484375 57.71875 40.648438 57.589844 40.734375 57.410156 C 40.777344 57.316406 40.796875 57.238281 40.835938 57.179688 C 40.871094 57.113281 40.925781 57.050781 40.980469 56.976562 C 41.101562 56.820312 41.132812 56.609375 41.128906 56.4375 C 41.128906 56.394531 41.125 56.34375 41.117188 56.300781 C 41.113281 56.25 41.097656 56.203125 41.085938 56.160156 Z M 36.972656 50.582031 C 36.957031 50.574219 36.945312 50.5625 36.929688 50.554688 C 37.136719 50.425781 37.332031 50.3125 37.519531 50.207031 C 38.21875 49.804688 38.769531 49.492188 39.351562 48.695312 C 40.269531 47.441406 39.878906 46.261719 39.734375 45.929688 C 39.722656 45.902344 39.71875 45.886719 39.71875 45.875 C 39.789062 45.882812 40.039062 46.070312 40.265625 46.441406 C 40.546875 46.898438 41.078125 48.117188 39.933594 49.613281 C 39.824219 49.757812 39.328125 50.257812 38.546875 50.644531 C 38.433594 50.699219 38.328125 50.75 38.226562 50.796875 C 38.1875 50.816406 38.148438 50.835938 38.109375 50.855469 C 38.085938 50.867188 38.058594 50.878906 38.035156 50.890625 C 38.011719 50.902344 37.992188 50.914062 37.96875 50.925781 C 37.925781 50.945312 37.886719 50.964844 37.847656 50.984375 C 37.769531 50.992188 37.691406 51 37.609375 51.007812 L 37.585938 51.011719 C 37.554688 50.988281 37.527344 50.964844 37.496094 50.941406 C 37.480469 50.933594 37.464844 50.921875 37.453125 50.910156 C 37.4375 50.898438 37.421875 50.886719 37.40625 50.875 C 37.265625 50.769531 37.125 50.671875 36.972656 50.582031 Z M 38.992188 52.523438 C 39.652344 52.519531 40.105469 52.28125 40.105469 52.28125 C 40.105469 52.28125 39.894531 52.199219 39.414062 51.945312 C 39.550781 51.9375 39.679688 51.921875 39.796875 51.90625 C 40.023438 52.035156 40.230469 52.121094 40.335938 52.160156 C 39.902344 52.492188 39.539062 52.582031 39.019531 52.570312 C 39.011719 52.554688 39.003906 52.539062 38.992188 52.523438 Z M 38.15625 50.957031 C 38.144531 50.953125 38.132812 50.953125 38.117188 50.949219 C 38.109375 50.953125 38.101562 50.957031 38.089844 50.964844 C 38.113281 50.960938 38.136719 50.960938 38.15625 50.957031 "/>
</g>
<path style=" stroke:none;fill-rule:nonzero;fill:rgb(54.508972%,81.568909%,16.079712%);fill-opacity:1;" d="M 36.972656 50.582031 C 37.125 50.671875 37.265625 50.769531 37.40625 50.875 C 37.421875 50.886719 37.4375 50.898438 37.453125 50.910156 C 37.464844 50.921875 37.480469 50.933594 37.496094 50.941406 C 37.527344 50.964844 37.554688 50.988281 37.585938 51.011719 L 37.609375 51.007812 C 37.691406 51 37.769531 50.992188 37.847656 50.984375 C 37.886719 50.964844 37.925781 50.945312 37.96875 50.925781 C 37.992188 50.914062 38.011719 50.902344 38.035156 50.890625 C 38.058594 50.878906 38.085938 50.867188 38.109375 50.855469 C 38.148438 50.835938 38.1875 50.816406 38.226562 50.796875 C 38.328125 50.75 38.433594 50.699219 38.546875 50.644531 C 39.328125 50.257812 39.824219 49.757812 39.933594 49.613281 C 41.078125 48.117188 40.546875 46.898438 40.265625 46.441406 C 40.039062 46.070312 39.789062 45.882812 39.71875 45.875 C 39.71875 45.886719 39.722656 45.902344 39.734375 45.929688 C 39.878906 46.261719 40.269531 47.441406 39.351562 48.695312 C 38.769531 49.492188 38.21875 49.804688 37.519531 50.207031 C 37.332031 50.3125 37.136719 50.425781 36.929688 50.554688 C 36.945312 50.5625 36.957031 50.574219 36.972656 50.582031 "/>
<path style=" stroke:none;fill-rule:nonzero;fill:rgb(54.508972%,81.568909%,16.079712%);fill-opacity:1;" d="M 39.265625 57.382812 C 39.167969 57.308594 39.078125 57.214844 39.007812 57.117188 C 38.941406 57.019531 38.878906 56.9375 38.796875 56.898438 C 38.761719 56.882812 38.707031 56.871094 38.671875 56.875 C 38.652344 56.878906 38.640625 56.882812 38.640625 56.882812 L 38.636719 56.886719 L 38.632812 56.90625 L 38.628906 56.910156 C 38.628906 56.914062 38.621094 56.90625 38.636719 56.921875 C 38.652344 56.933594 38.675781 56.945312 38.699219 56.957031 C 38.746094 56.980469 38.792969 57.011719 38.835938 57.042969 C 38.925781 57.109375 38.984375 57.1875 39.046875 57.242188 C 39.152344 57.335938 39.261719 57.394531 39.347656 57.441406 C 39.320312 57.421875 39.292969 57.40625 39.265625 57.382812 Z M 40.984375 56.308594 C 40.984375 56.269531 40.980469 56.230469 40.972656 56.191406 C 40.957031 56.113281 40.925781 56.035156 40.886719 55.964844 C 40.804688 55.816406 40.695312 55.683594 40.578125 55.558594 C 40.492188 55.519531 40.394531 55.503906 40.304688 55.535156 C 40.226562 55.558594 40.140625 55.582031 40.058594 55.59375 L 40.039062 55.585938 C 40.03125 55.582031 40.023438 55.574219 40.015625 55.570312 C 40.003906 55.566406 39.996094 55.5625 39.984375 55.558594 C 39.925781 55.527344 39.855469 55.507812 39.785156 55.488281 C 39.746094 55.484375 39.707031 55.476562 39.667969 55.472656 C 39.617188 55.464844 39.589844 55.472656 39.546875 55.472656 C 39.507812 55.46875 39.464844 55.476562 39.421875 55.488281 C 39.375 55.492188 39.332031 55.503906 39.289062 55.523438 C 39.199219 55.554688 39.121094 55.613281 39.054688 55.679688 C 39.019531 55.71875 38.992188 55.757812 38.964844 55.800781 C 38.945312 55.839844 38.925781 55.878906 38.910156 55.917969 L 38.898438 55.949219 L 38.894531 55.957031 L 38.890625 55.972656 L 38.890625 55.988281 L 38.878906 56.050781 C 38.882812 56.097656 38.882812 56.152344 38.890625 56.195312 C 38.902344 56.234375 38.910156 56.277344 38.925781 56.316406 C 38.941406 56.351562 38.957031 56.386719 38.972656 56.421875 C 39.003906 56.476562 39.035156 56.523438 39.070312 56.566406 C 39.074219 56.574219 39.082031 56.585938 39.089844 56.59375 L 39.105469 56.609375 C 39.121094 56.628906 39.140625 56.648438 39.15625 56.667969 C 39.167969 56.675781 39.179688 56.683594 39.1875 56.691406 L 39.1875 56.695312 C 39.1875 56.699219 39.175781 56.734375 39.144531 56.742188 C 39.113281 56.75 39.089844 56.738281 39.09375 56.738281 L 39.089844 56.738281 L 39.082031 56.734375 L 39.0625 56.722656 L 39.035156 56.699219 C 38.96875 56.648438 38.902344 56.597656 38.828125 56.558594 C 38.757812 56.519531 38.679688 56.484375 38.609375 56.488281 C 38.539062 56.488281 38.484375 56.542969 38.460938 56.625 C 38.40625 56.78125 38.359375 56.964844 38.457031 57.097656 C 38.550781 57.230469 38.71875 57.296875 38.867188 57.390625 C 39.015625 57.488281 39.15625 57.582031 39.304688 57.65625 C 39.378906 57.691406 39.453125 57.726562 39.53125 57.738281 C 39.566406 57.75 39.605469 57.746094 39.644531 57.75 C 39.683594 57.75 39.730469 57.746094 39.769531 57.742188 C 39.933594 57.734375 40.097656 57.699219 40.238281 57.632812 C 40.269531 57.617188 40.292969 57.601562 40.320312 57.585938 C 40.285156 57.601562 40.246094 57.617188 40.203125 57.628906 C 40.023438 57.675781 39.789062 57.65625 39.574219 57.566406 C 39.546875 57.554688 39.515625 57.539062 39.488281 57.523438 C 39.464844 57.515625 39.429688 57.503906 39.390625 57.488281 C 39.292969 57.449219 39.15625 57.402344 39.003906 57.296875 C 38.925781 57.242188 38.863281 57.175781 38.777344 57.132812 C 38.738281 57.109375 38.695312 57.089844 38.644531 57.070312 C 38.621094 57.058594 38.59375 57.050781 38.5625 57.03125 C 38.535156 57.019531 38.488281 56.964844 38.488281 56.910156 C 38.488281 56.898438 38.492188 56.886719 38.492188 56.871094 L 38.496094 56.851562 C 38.503906 56.828125 38.515625 56.804688 38.53125 56.785156 C 38.570312 56.742188 38.613281 56.730469 38.652344 56.722656 C 38.730469 56.714844 38.789062 56.722656 38.863281 56.75 C 38.996094 56.804688 39.082031 56.921875 39.148438 57.011719 C 39.28125 57.191406 39.457031 57.328125 39.640625 57.417969 C 39.828125 57.507812 40.019531 57.542969 40.183594 57.523438 C 40.339844 57.5 40.464844 57.433594 40.539062 57.367188 C 40.546875 57.351562 40.558594 57.339844 40.566406 57.328125 C 40.59375 57.265625 40.617188 57.171875 40.671875 57.082031 C 40.722656 57 40.785156 56.929688 40.835938 56.867188 C 40.929688 56.75 40.964844 56.597656 40.980469 56.429688 C 40.980469 56.386719 40.984375 56.351562 40.984375 56.308594 Z M 38.746094 54.285156 C 38.832031 54.324219 38.910156 54.351562 38.980469 54.367188 C 39.054688 54.382812 39.117188 54.390625 39.171875 54.390625 C 39.222656 54.390625 39.261719 54.386719 39.292969 54.386719 C 39.320312 54.382812 39.332031 54.382812 39.332031 54.382812 C 39.332031 54.382812 39.320312 54.382812 39.292969 54.378906 C 39.265625 54.378906 39.222656 54.375 39.171875 54.363281 C 39.121094 54.355469 39.0625 54.34375 38.996094 54.320312 C 38.925781 54.300781 38.855469 54.261719 38.78125 54.21875 C 38.636719 54.128906 38.488281 53.992188 38.367188 53.816406 C 38.304688 53.726562 38.246094 53.632812 38.195312 53.53125 C 38.140625 53.429688 38.097656 53.320312 38.035156 53.214844 C 37.976562 53.105469 37.902344 53.003906 37.8125 52.910156 C 37.726562 52.824219 37.613281 52.746094 37.496094 52.710938 C 37.378906 52.667969 37.253906 52.65625 37.140625 52.683594 C 37.023438 52.707031 36.929688 52.765625 36.855469 52.828125 C 36.710938 52.957031 36.644531 53.101562 36.605469 53.199219 C 36.582031 53.246094 36.570312 53.285156 36.5625 53.3125 C 36.554688 53.339844 36.550781 53.355469 36.550781 53.355469 C 36.550781 53.355469 36.585938 53.304688 36.644531 53.222656 C 36.707031 53.140625 36.800781 53.027344 36.9375 52.933594 C 37.003906 52.890625 37.082031 52.855469 37.167969 52.84375 C 37.253906 52.832031 37.347656 52.839844 37.4375 52.875 C 37.625 52.9375 37.777344 53.101562 37.894531 53.296875 C 37.953125 53.390625 38.007812 53.5 38.066406 53.601562 C 38.128906 53.707031 38.195312 53.800781 38.265625 53.890625 C 38.410156 54.066406 38.582031 54.207031 38.746094 54.285156 Z M 38.113281 54.046875 C 37.976562 53.980469 37.890625 53.882812 37.785156 53.6875 C 37.734375 53.59375 37.648438 53.503906 37.566406 53.445312 C 37.410156 53.339844 37.140625 53.203125 36.953125 53.441406 C 37.054688 53.363281 37.171875 53.367188 37.28125 53.40625 C 37.257812 53.414062 37.234375 53.429688 37.21875 53.449219 C 37.148438 53.53125 37.171875 53.664062 37.257812 53.769531 C 37.3125 53.808594 37.371094 53.839844 37.425781 53.871094 C 37.457031 53.886719 37.484375 53.898438 37.515625 53.914062 C 37.585938 53.917969 37.648438 53.894531 37.6875 53.847656 C 37.707031 53.824219 37.71875 53.796875 37.722656 53.769531 C 37.828125 53.953125 37.953125 53.992188 38.085938 54.054688 C 38.105469 54.050781 38.113281 54.046875 38.113281 54.046875 Z M 36.234375 52.8125 C 36.078125 53.144531 35.839844 53.4375 35.539062 53.640625 C 35.464844 53.695312 35.386719 53.742188 35.304688 53.78125 C 35.222656 53.824219 35.140625 53.855469 35.054688 53.886719 C 34.882812 53.941406 34.703125 53.984375 34.523438 54.027344 C 34.167969 54.105469 33.808594 54.175781 33.445312 54.15625 C 33.355469 54.152344 33.265625 54.140625 33.179688 54.121094 C 33.089844 54.105469 33.003906 54.082031 32.917969 54.054688 C 32.773438 54.003906 32.632812 53.9375 32.496094 53.867188 C 32.789062 53.707031 33.066406 53.527344 33.3125 53.300781 C 33.378906 53.238281 33.441406 53.175781 33.5 53.105469 C 33.558594 53.035156 33.609375 52.96875 33.671875 52.902344 C 33.789062 52.777344 33.925781 52.664062 34.070312 52.5625 C 34.355469 52.363281 34.683594 52.207031 35.03125 52.167969 C 35.121094 52.160156 35.207031 52.160156 35.296875 52.167969 C 35.382812 52.175781 35.464844 52.199219 35.550781 52.226562 C 35.636719 52.246094 35.71875 52.28125 35.800781 52.3125 C 35.882812 52.347656 35.960938 52.390625 36.035156 52.445312 C 35.964844 52.386719 35.886719 52.34375 35.808594 52.304688 C 35.726562 52.265625 35.644531 52.230469 35.558594 52.203125 C 35.476562 52.175781 35.386719 52.148438 35.300781 52.136719 C 35.210938 52.121094 35.121094 52.121094 35.027344 52.125 C 34.667969 52.15625 34.328125 52.308594 34.03125 52.503906 C 33.878906 52.605469 33.738281 52.71875 33.613281 52.851562 C 33.550781 52.914062 33.496094 52.992188 33.4375 53.054688 C 33.382812 53.121094 33.320312 53.183594 33.257812 53.242188 C 32.996094 53.476562 32.695312 53.667969 32.382812 53.828125 L 32.367188 53.847656 C 32.351562 53.867188 32.359375 53.894531 32.382812 53.90625 C 32.542969 53.996094 32.714844 54.078125 32.890625 54.132812 C 32.980469 54.164062 33.070312 54.1875 33.164062 54.203125 C 33.253906 54.222656 33.347656 54.230469 33.441406 54.234375 C 33.816406 54.253906 34.183594 54.183594 34.542969 54.09375 C 34.71875 54.046875 34.898438 54.003906 35.074219 53.941406 C 35.160156 53.90625 35.246094 53.871094 35.328125 53.824219 C 35.410156 53.78125 35.488281 53.734375 35.5625 53.679688 C 35.863281 53.457031 36.09375 53.152344 36.234375 52.8125 Z M 36.019531 52.644531 C 36.019531 52.644531 35.097656 52.175781 34.171875 52.933594 C 33.242188 53.695312 32.851562 53.917969 32.851562 53.917969 C 32.851562 53.917969 33.390625 54.105469 34.09375 53.96875 C 34.796875 53.828125 35.515625 53.640625 35.878906 53.203125 C 36.105469 52.933594 36.207031 52.742188 36.175781 52.726562 C 36.089844 52.683594 36.046875 52.65625 36.019531 52.644531 "/>
<path style=" stroke:none;fill-rule:nonzero;fill:rgb(54.508972%,81.568909%,16.079712%);fill-opacity:1;" d="M 39.019531 52.570312 C 39.539062 52.582031 39.902344 52.492188 40.335938 52.160156 C 40.230469 52.121094 40.023438 52.035156 39.796875 51.90625 C 39.679688 51.921875 39.550781 51.9375 39.414062 51.945312 C 39.894531 52.199219 40.105469 52.28125 40.105469 52.28125 C 40.105469 52.28125 39.652344 52.519531 38.992188 52.523438 C 39.003906 52.539062 39.011719 52.554688 39.019531 52.570312 "/>
<path style=" stroke:none;fill-rule:nonzero;fill:rgb(54.508972%,81.568909%,16.079712%);fill-opacity:1;" d="M 40.472656 56.316406 C 40.402344 56.234375 40.339844 56.121094 40.21875 56.011719 C 40.160156 55.960938 40.074219 55.917969 39.988281 55.90625 C 39.898438 55.890625 39.8125 55.90625 39.734375 55.925781 C 39.695312 55.9375 39.652344 55.945312 39.609375 55.96875 C 39.5625 55.996094 39.523438 56.03125 39.496094 56.078125 C 39.4375 56.175781 39.457031 56.289062 39.492188 56.363281 C 39.570312 56.519531 39.710938 56.601562 39.828125 56.632812 C 39.953125 56.660156 40.054688 56.640625 40.117188 56.617188 C 40.183594 56.597656 40.214844 56.574219 40.214844 56.574219 C 40.214844 56.574219 40.175781 56.582031 40.113281 56.582031 C 40.046875 56.582031 39.957031 56.574219 39.863281 56.527344 C 39.773438 56.488281 39.679688 56.40625 39.640625 56.300781 C 39.625 56.25 39.625 56.199219 39.644531 56.167969 C 39.652344 56.152344 39.671875 56.132812 39.6875 56.125 C 39.710938 56.113281 39.742188 56.105469 39.777344 56.09375 C 39.910156 56.054688 40.03125 56.058594 40.128906 56.132812 C 40.230469 56.203125 40.316406 56.308594 40.402344 56.382812 C 40.492188 56.460938 40.578125 56.511719 40.640625 56.535156 C 40.707031 56.558594 40.742188 56.566406 40.742188 56.566406 C 40.742188 56.566406 40.710938 56.546875 40.65625 56.507812 C 40.605469 56.46875 40.539062 56.40625 40.472656 56.316406 "/>
<path style=" stroke:none;fill-rule:nonzero;fill:rgb(54.508972%,81.568909%,16.079712%);fill-opacity:1;" d="M 35.257812 62.34375 L 35.246094 62.3125 L 35.207031 62.332031 L 35.121094 62.261719 L 35.125 62.253906 L 35.121094 62.253906 L 35.101562 62.164062 L 35.097656 62.160156 C 35.066406 62.171875 35.027344 62.175781 34.988281 62.15625 L 34.9375 62.128906 L 34.941406 62.074219 L 34.890625 62.097656 L 34.851562 62.023438 C 34.8125 61.953125 34.761719 61.863281 34.730469 61.828125 L 34.703125 61.828125 L 34.683594 61.765625 C 34.679688 61.757812 34.675781 61.746094 34.679688 61.714844 L 34.664062 61.714844 L 34.640625 61.625 L 34.574219 61.589844 C 34.578125 61.582031 34.578125 61.566406 34.582031 61.542969 C 34.554688 61.53125 34.523438 61.515625 34.503906 61.503906 L 34.375 61.398438 L 34.53125 61.347656 C 34.546875 61.339844 34.546875 61.34375 34.554688 61.332031 C 34.558594 61.324219 34.566406 61.308594 34.582031 61.296875 L 34.574219 61.292969 L 34.519531 61.238281 L 34.386719 61.230469 L 34.5 61.132812 C 34.4375 61.140625 34.375 61.152344 34.308594 61.167969 C 34.230469 61.183594 34.152344 61.203125 34.074219 61.230469 C 33.996094 61.253906 33.984375 61.3125 34 61.453125 C 34.003906 61.480469 34.003906 61.507812 34.011719 61.539062 C 34.015625 61.589844 34.023438 61.636719 34.027344 61.683594 C 34.03125 61.746094 34.035156 61.820312 34.042969 61.898438 C 34.050781 61.984375 34.054688 62.074219 34.0625 62.167969 C 34.089844 62.472656 34.121094 62.800781 34.15625 63.066406 C 34.160156 63.082031 34.160156 63.089844 34.164062 63.105469 C 34.191406 63.0625 34.226562 63.015625 34.269531 62.980469 C 34.304688 62.953125 34.335938 62.933594 34.378906 62.910156 C 34.417969 62.886719 34.457031 62.875 34.492188 62.863281 L 34.515625 62.855469 L 34.519531 62.851562 L 34.542969 62.839844 C 34.554688 62.835938 34.5625 62.832031 34.570312 62.828125 C 34.589844 62.816406 34.605469 62.800781 34.625 62.789062 L 34.640625 62.777344 C 34.660156 62.761719 34.675781 62.746094 34.695312 62.726562 C 34.71875 62.703125 34.742188 62.675781 34.765625 62.652344 C 34.839844 62.570312 34.898438 62.507812 34.898438 62.507812 C 34.898438 62.507812 34.917969 62.59375 34.882812 62.714844 C 34.878906 62.742188 34.867188 62.765625 34.855469 62.792969 L 34.847656 62.8125 C 34.839844 62.832031 34.828125 62.851562 34.816406 62.871094 C 34.804688 62.886719 34.796875 62.898438 34.785156 62.914062 C 34.777344 62.925781 34.769531 62.933594 34.761719 62.941406 C 34.738281 62.964844 34.714844 62.988281 34.6875 63.007812 C 34.664062 63.019531 34.644531 63.035156 34.621094 63.042969 L 34.558594 63.0625 C 34.519531 63.074219 34.484375 63.085938 34.457031 63.097656 C 34.425781 63.105469 34.394531 63.117188 34.367188 63.132812 C 34.3125 63.15625 34.265625 63.1875 34.230469 63.222656 C 34.214844 63.238281 34.199219 63.253906 34.191406 63.269531 C 34.214844 63.417969 34.238281 63.519531 34.253906 63.578125 C 34.28125 63.558594 34.316406 63.527344 34.34375 63.503906 C 34.382812 63.472656 34.421875 63.4375 34.457031 63.414062 C 34.617188 63.308594 34.785156 63.1875 34.921875 63.003906 C 34.929688 62.992188 34.9375 62.984375 34.945312 62.976562 C 34.96875 62.945312 34.992188 62.914062 35.011719 62.886719 L 35.023438 62.871094 C 35.152344 62.707031 35.242188 62.589844 35.296875 62.40625 L 35.285156 62.417969 L 35.257812 62.34375 "/>
<g clip-path="url(#clip6)" clip-rule="nonzero">
<path style=" stroke:none;fill-rule:nonzero;fill:rgb(54.508972%,81.568909%,16.079712%);fill-opacity:1;" d="M 42.519531 48.824219 C 42.472656 48.386719 42.332031 48.113281 42.269531 48.074219 C 42.269531 48.085938 42.265625 48.101562 42.261719 48.128906 C 42.246094 48.492188 42.089844 49.726562 40.71875 50.457031 C 40.484375 50.582031 40.261719 50.683594 40.03125 50.761719 C 39.542969 50.925781 39.101562 50.976562 38.617188 51.011719 C 38.582031 51.015625 38.550781 51.015625 38.515625 51.019531 C 38.484375 51.023438 38.449219 51.023438 38.417969 51.027344 L 38.40625 51.027344 C 38.234375 51.039062 38.058594 51.054688 37.871094 51.070312 C 37.832031 51.074219 37.792969 51.078125 37.75 51.082031 C 37.730469 51.085938 37.707031 51.085938 37.683594 51.089844 C 37.675781 51.089844 37.667969 51.089844 37.660156 51.09375 C 37.652344 51.09375 37.644531 51.09375 37.636719 51.09375 L 37.625 51.097656 L 37.617188 51.097656 C 37.324219 51.132812 37.011719 51.253906 36.683594 51.457031 C 36.65625 51.476562 36.628906 51.492188 36.601562 51.511719 C 36.5625 51.539062 36.523438 51.566406 36.484375 51.59375 C 36.429688 51.632812 36.371094 51.675781 36.3125 51.722656 C 36.210938 51.804688 36.105469 51.890625 36.003906 51.988281 C 36.003906 52.027344 36.03125 52.089844 36.089844 52.152344 C 36.117188 52.183594 36.164062 52.222656 36.226562 52.257812 C 36.25 52.269531 36.273438 52.28125 36.300781 52.292969 C 36.320312 52.304688 36.34375 52.3125 36.371094 52.320312 C 36.484375 52.359375 36.632812 52.386719 36.828125 52.378906 C 36.960938 52.375 37.078125 52.351562 37.1875 52.324219 C 37.210938 52.316406 37.234375 52.3125 37.257812 52.304688 L 37.28125 52.300781 C 37.292969 52.296875 37.304688 52.289062 37.316406 52.285156 C 37.332031 52.28125 37.34375 52.273438 37.359375 52.265625 L 37.375 52.257812 C 37.550781 52.179688 37.664062 52.082031 37.738281 52.011719 C 37.78125 51.976562 37.8125 51.945312 37.847656 51.925781 C 37.855469 51.921875 37.863281 51.917969 37.875 51.914062 C 37.976562 51.882812 38.183594 51.871094 38.472656 51.867188 L 38.519531 51.867188 C 38.605469 51.867188 38.695312 51.867188 38.792969 51.867188 C 38.902344 51.867188 39.023438 51.867188 39.152344 51.867188 C 39.1875 51.863281 39.222656 51.863281 39.261719 51.863281 C 39.40625 51.855469 39.546875 51.847656 39.675781 51.832031 C 39.699219 51.832031 39.722656 51.828125 39.746094 51.824219 C 39.769531 51.820312 39.792969 51.816406 39.816406 51.8125 C 40.203125 51.757812 40.492188 51.671875 40.625 51.625 C 40.714844 51.597656 40.796875 51.5625 40.847656 51.539062 C 42.527344 50.683594 42.578125 49.355469 42.519531 48.824219 "/>
</g>
<path style=" stroke:none;fill-rule:nonzero;fill:rgb(54.508972%,81.568909%,16.079712%);fill-opacity:1;" d="M 38.273438 73.335938 C 28.484375 73.335938 19.265625 69.523438 12.347656 62.59375 C 5.417969 55.675781 1.605469 46.457031 1.605469 36.667969 C 1.605469 26.878906 5.417969 17.660156 12.347656 10.742188 C 19.265625 3.808594 28.484375 0 38.273438 0 C 48.0625 0 57.28125 3.808594 64.199219 10.742188 C 71.132812 17.675781 74.941406 26.878906 74.941406 36.667969 C 74.941406 46.457031 71.132812 55.675781 64.199219 62.59375 C 57.28125 69.523438 48.0625 73.335938 38.273438 73.335938 Z M 38.273438 2.199219 C 29.070312 2.199219 20.410156 5.789062 13.902344 12.296875 C 7.394531 18.800781 3.804688 27.464844 3.804688 36.667969 C 3.804688 45.871094 7.394531 54.53125 13.902344 61.039062 C 20.410156 67.546875 29.070312 71.136719 38.273438 71.136719 C 47.476562 71.136719 56.140625 67.546875 62.644531 61.039062 C 69.152344 54.53125 72.742188 45.871094 72.742188 36.667969 C 72.742188 27.464844 69.152344 18.800781 62.644531 12.296875 C 56.140625 5.789062 47.476562 2.199219 38.273438 2.199219 Z M 38.273438 2.199219 "/>
<path style=" stroke:none;fill-rule:nonzero;fill:rgb(72.549438%,11.369324%,14.118958%);fill-opacity:1;" d="M 45.984375 21.007812 L 45.972656 21.039062 C 45.957031 21.046875 45.941406 21.054688 45.925781 21.066406 L 45.929688 21.0625 L 45.992188 20.992188 L 45.984375 21.007812 "/>
<g clip-path="url(#clip7)" clip-rule="nonzero">
<path style=" stroke:none;fill-rule:nonzero;fill:rgb(72.549438%,11.369324%,14.118958%);fill-opacity:1;" d="M 42.683594 19.570312 C 42.683594 19.570312 42.703125 19.574219 42.738281 19.570312 C 42.773438 19.570312 42.828125 19.558594 42.878906 19.527344 C 42.933594 19.496094 42.972656 19.433594 43.019531 19.367188 C 43.042969 19.335938 43.070312 19.304688 43.101562 19.273438 C 43.132812 19.242188 43.164062 19.214844 43.199219 19.1875 C 43.238281 19.164062 43.277344 19.144531 43.316406 19.132812 C 43.359375 19.117188 43.398438 19.109375 43.441406 19.105469 C 43.519531 19.097656 43.59375 19.105469 43.65625 19.109375 C 43.777344 19.125 43.859375 19.140625 43.859375 19.140625 C 43.859375 19.140625 43.789062 19.140625 43.683594 19.140625 L 43.667969 19.183594 L 43.65625 19.226562 L 43.636719 19.273438 C 43.625 19.308594 43.609375 19.339844 43.589844 19.367188 C 43.554688 19.429688 43.511719 19.480469 43.464844 19.53125 C 43.417969 19.578125 43.363281 19.617188 43.308594 19.652344 C 43.25 19.683594 43.1875 19.703125 43.128906 19.71875 C 43.207031 19.695312 43.28125 19.652344 43.34375 19.597656 C 43.378906 19.566406 43.410156 19.535156 43.433594 19.5 C 43.472656 19.449219 43.5 19.390625 43.523438 19.332031 C 43.535156 19.300781 43.542969 19.269531 43.550781 19.242188 L 43.5625 19.207031 C 43.519531 19.199219 43.476562 19.195312 43.429688 19.195312 C 43.367188 19.195312 43.300781 19.210938 43.242188 19.238281 L 43.238281 19.242188 C 43.289062 19.25 43.3125 19.269531 43.355469 19.3125 C 43.457031 19.410156 43.414062 19.53125 43.347656 19.574219 C 43.300781 19.605469 43.253906 19.609375 43.207031 19.589844 C 43.195312 19.582031 43.179688 19.574219 43.164062 19.5625 C 43.144531 19.546875 43.128906 19.53125 43.117188 19.511719 C 43.078125 19.460938 43.0625 19.410156 43.058594 19.382812 L 43.046875 19.394531 C 42.992188 19.449219 42.949219 19.515625 42.886719 19.546875 C 42.832031 19.574219 42.777344 19.578125 42.738281 19.578125 C 42.703125 19.578125 42.683594 19.570312 42.683594 19.570312 Z M 43.878906 16.925781 C 43.839844 17.042969 43.792969 17.136719 43.75 17.199219 C 43.722656 17.238281 43.699219 17.257812 43.6875 17.269531 C 43.679688 17.273438 43.671875 17.277344 43.671875 17.277344 C 43.671875 17.277344 43.679688 17.273438 43.6875 17.261719 C 43.699219 17.25 43.71875 17.226562 43.734375 17.1875 C 43.769531 17.125 43.796875 17.027344 43.828125 16.910156 C 43.84375 16.847656 43.863281 16.785156 43.878906 16.714844 C 43.902344 16.644531 43.921875 16.570312 43.964844 16.5 C 43.984375 16.464844 44.007812 16.425781 44.046875 16.398438 C 44.066406 16.382812 44.085938 16.367188 44.109375 16.363281 C 44.132812 16.351562 44.164062 16.351562 44.179688 16.351562 C 44.269531 16.355469 44.351562 16.382812 44.425781 16.425781 C 44.574219 16.511719 44.6875 16.640625 44.773438 16.773438 C 44.859375 16.902344 44.914062 17.039062 44.960938 17.15625 C 45.050781 17.386719 45.074219 17.554688 45.074219 17.554688 C 45.074219 17.554688 45.019531 17.398438 44.914062 17.179688 C 44.859375 17.070312 44.789062 16.945312 44.703125 16.824219 C 44.621094 16.703125 44.511719 16.585938 44.382812 16.515625 C 44.320312 16.476562 44.246094 16.453125 44.179688 16.445312 C 44.117188 16.441406 44.074219 16.484375 44.035156 16.546875 C 43.964844 16.667969 43.921875 16.8125 43.878906 16.925781 Z M 43.945312 17.527344 C 43.945312 17.527344 43.953125 17.492188 43.964844 17.480469 L 43.957031 17.472656 C 43.972656 17.453125 44.007812 17.464844 44.023438 17.445312 L 44 17.429688 C 44 17.417969 44.007812 17.417969 44.011719 17.414062 C 44.015625 17.394531 44.011719 17.375 44.015625 17.359375 L 44.015625 17.335938 C 44.019531 17.328125 44.03125 17.328125 44.03125 17.320312 C 44.035156 17.308594 44.019531 17.296875 44.023438 17.285156 C 44.03125 17.269531 44.058594 17.273438 44.066406 17.265625 C 44.058594 17.257812 44.054688 17.257812 44.046875 17.253906 C 44.097656 17.246094 44.050781 17.207031 44.0625 17.171875 C 44.066406 17.160156 44.058594 17.164062 44.066406 17.15625 C 44.078125 17.148438 44.101562 17.167969 44.113281 17.152344 C 44.128906 17.132812 44.082031 17.078125 44.078125 17.058594 C 44.089844 17.058594 44.105469 17.050781 44.117188 17.042969 C 44.140625 17.027344 44.136719 17.011719 44.136719 16.984375 C 44.136719 16.960938 44.128906 16.882812 44.164062 16.910156 C 44.171875 16.890625 44.164062 16.871094 44.167969 16.851562 C 44.171875 16.832031 44.175781 16.816406 44.175781 16.792969 C 44.183594 16.796875 44.191406 16.804688 44.199219 16.804688 C 44.207031 16.796875 44.207031 16.769531 44.214844 16.765625 C 44.222656 16.757812 44.222656 16.765625 44.226562 16.765625 L 44.238281 16.765625 C 44.253906 16.757812 44.261719 16.722656 44.273438 16.710938 L 44.277344 16.722656 C 44.28125 16.710938 44.277344 16.699219 44.285156 16.691406 C 44.285156 16.703125 44.285156 16.714844 44.285156 16.726562 C 44.285156 16.71875 44.285156 16.707031 44.292969 16.703125 C 44.296875 16.71875 44.296875 16.742188 44.3125 16.75 C 44.320312 16.742188 44.328125 16.730469 44.339844 16.734375 C 44.34375 16.742188 44.339844 16.753906 44.339844 16.761719 C 44.355469 16.765625 44.367188 16.761719 44.378906 16.753906 C 44.375 16.765625 44.371094 16.777344 44.375 16.789062 C 44.386719 16.792969 44.390625 16.78125 44.398438 16.78125 C 44.410156 16.78125 44.398438 16.78125 44.410156 16.789062 L 44.417969 16.796875 L 44.429688 16.800781 C 44.4375 16.804688 44.4375 16.800781 44.441406 16.816406 C 44.453125 16.835938 44.449219 16.839844 44.46875 16.832031 C 44.488281 16.828125 44.5 16.800781 44.515625 16.824219 C 44.523438 16.835938 44.523438 16.890625 44.507812 16.898438 C 44.515625 16.890625 44.523438 16.890625 44.53125 16.890625 C 44.53125 16.902344 44.527344 16.925781 44.53125 16.9375 C 44.539062 16.953125 44.542969 16.945312 44.550781 16.949219 C 44.574219 16.96875 44.558594 16.984375 44.589844 16.984375 C 44.628906 16.988281 44.589844 17.007812 44.597656 17.03125 C 44.605469 17.050781 44.628906 17.046875 44.632812 17.0625 C 44.636719 17.066406 44.628906 17.078125 44.628906 17.085938 C 44.632812 17.117188 44.683594 17.128906 44.648438 17.167969 C 44.632812 17.183594 44.609375 17.1875 44.640625 17.207031 C 44.65625 17.214844 44.675781 17.21875 44.679688 17.242188 L 44.675781 17.257812 C 44.679688 17.273438 44.699219 17.285156 44.699219 17.285156 C 44.699219 17.285156 44.699219 17.300781 44.695312 17.308594 L 44.6875 17.328125 C 44.691406 17.351562 44.730469 17.351562 44.742188 17.367188 C 44.710938 17.382812 44.710938 17.402344 44.707031 17.4375 C 44.699219 17.472656 44.6875 17.511719 44.707031 17.546875 C 44.699219 17.5625 44.675781 17.554688 44.660156 17.554688 C 44.664062 17.566406 44.671875 17.621094 44.671875 17.621094 C 44.671875 17.621094 44.644531 17.617188 44.636719 17.628906 L 44.636719 17.667969 C 44.636719 17.667969 44.605469 17.660156 44.59375 17.691406 C 44.585938 17.710938 44.589844 17.738281 44.585938 17.757812 L 44.578125 17.742188 C 44.578125 17.78125 44.542969 17.730469 44.527344 17.730469 C 44.507812 17.726562 44.496094 17.769531 44.496094 17.769531 C 44.496094 17.769531 44.476562 17.746094 44.460938 17.726562 C 44.445312 17.699219 44.433594 17.722656 44.414062 17.75 C 44.402344 17.738281 44.398438 17.707031 44.390625 17.691406 C 44.382812 17.699219 44.378906 17.71875 44.367188 17.722656 C 44.355469 17.707031 44.351562 17.679688 44.339844 17.667969 C 44.324219 17.707031 44.324219 17.691406 44.304688 17.671875 C 44.296875 17.679688 44.289062 17.695312 44.289062 17.707031 C 44.277344 17.695312 44.269531 17.671875 44.257812 17.660156 C 44.253906 17.664062 44.253906 17.675781 44.246094 17.679688 C 44.234375 17.683594 44.222656 17.664062 44.214844 17.65625 C 44.195312 17.640625 44.1875 17.644531 44.171875 17.648438 C 44.171875 17.609375 44.082031 17.636719 44.0625 17.617188 L 44.0625 17.601562 L 44.054688 17.597656 L 44.042969 17.59375 L 44.042969 17.574219 C 44.035156 17.578125 44.023438 17.582031 44.015625 17.582031 C 44.011719 17.570312 44.003906 17.554688 44.003906 17.542969 L 44 17.554688 C 43.953125 17.5625 43.945312 17.527344 43.945312 17.527344 Z M 49.726562 25.078125 C 49.726562 25.078125 49.691406 25.113281 49.644531 25.160156 C 49.625 25.1875 49.601562 25.214844 49.574219 25.25 C 49.554688 25.285156 49.523438 25.320312 49.507812 25.359375 C 49.484375 25.398438 49.46875 25.4375 49.453125 25.476562 C 49.445312 25.496094 49.441406 25.515625 49.433594 25.535156 C 49.429688 25.554688 49.421875 25.570312 49.421875 25.585938 C 49.417969 25.621094 49.410156 25.648438 49.414062 25.667969 C 49.414062 25.691406 49.414062 25.703125 49.414062 25.703125 C 49.417969 25.699219 49.390625 25.660156 49.394531 25.585938 C 49.394531 25.566406 49.398438 25.546875 49.398438 25.527344 C 49.40625 25.507812 49.40625 25.484375 49.414062 25.464844 C 49.425781 25.421875 49.441406 25.375 49.464844 25.335938 C 49.484375 25.292969 49.515625 25.257812 49.542969 25.21875 C 49.570312 25.1875 49.601562 25.160156 49.628906 25.136719 C 49.683594 25.097656 49.726562 25.078125 49.726562 25.078125 Z M 49.054688 24.960938 C 49.054688 24.960938 49.011719 25 48.949219 25.046875 C 48.914062 25.070312 48.882812 25.109375 48.84375 25.144531 C 48.824219 25.160156 48.808594 25.179688 48.789062 25.199219 C 48.773438 25.222656 48.753906 25.242188 48.738281 25.265625 C 48.707031 25.308594 48.675781 25.355469 48.65625 25.402344 C 48.644531 25.425781 48.632812 25.449219 48.625 25.472656 C 48.617188 25.492188 48.605469 25.515625 48.605469 25.535156 C 48.59375 25.574219 48.582031 25.609375 48.582031 25.636719 C 48.574219 25.660156 48.574219 25.675781 48.574219 25.675781 C 48.574219 25.675781 48.570312 25.660156 48.570312 25.632812 C 48.570312 25.609375 48.570312 25.574219 48.578125 25.527344 C 48.578125 25.507812 48.585938 25.484375 48.59375 25.460938 C 48.597656 25.433594 48.605469 25.410156 48.617188 25.382812 C 48.636719 25.332031 48.667969 25.28125 48.699219 25.234375 C 48.714844 25.207031 48.738281 25.191406 48.757812 25.167969 C 48.777344 25.148438 48.792969 25.125 48.816406 25.109375 C 48.855469 25.078125 48.894531 25.046875 48.933594 25.023438 C 49.007812 24.984375 49.054688 24.960938 49.054688 24.960938 Z M 41.425781 21.195312 C 41.433594 21.191406 41.457031 21.195312 41.523438 21.234375 C 41.640625 21.300781 41.695312 21.167969 41.808594 21.171875 C 41.921875 21.179688 41.878906 21.285156 41.824219 21.394531 C 41.773438 21.5 41.742188 21.558594 41.730469 21.628906 C 41.71875 21.71875 41.71875 21.769531 41.710938 21.78125 C 41.757812 21.832031 41.816406 21.882812 41.886719 21.933594 C 41.941406 21.976562 42 22.019531 42.070312 22.042969 C 42.140625 22.070312 42.21875 22.089844 42.300781 22.085938 C 42.382812 22.085938 42.464844 22.066406 42.539062 22.023438 C 42.613281 21.984375 42.675781 21.917969 42.746094 21.855469 C 42.886719 21.730469 43.050781 21.644531 43.207031 21.582031 C 43.367188 21.519531 43.519531 21.484375 43.648438 21.445312 C 43.777344 21.402344 43.878906 21.359375 43.945312 21.320312 C 43.980469 21.300781 44.007812 21.28125 44.023438 21.269531 C 44.042969 21.257812 44.050781 21.25 44.050781 21.25 C 44.050781 21.25 44.042969 21.257812 44.027344 21.273438 C 44.007812 21.285156 43.984375 21.304688 43.953125 21.328125 C 43.886719 21.371094 43.785156 21.429688 43.65625 21.472656 C 43.527344 21.519531 43.378906 21.5625 43.222656 21.625 C 43.144531 21.65625 43.066406 21.691406 42.992188 21.738281 C 42.917969 21.78125 42.84375 21.835938 42.777344 21.894531 C 42.707031 21.953125 42.644531 22.019531 42.558594 22.066406 C 42.542969 22.074219 42.523438 22.078125 42.507812 22.085938 C 42.582031 22.132812 42.769531 22.28125 42.984375 22.191406 C 43.480469 21.984375 43.519531 21.859375 44.007812 21.714844 L 44.011719 21.710938 C 44.078125 21.691406 44.140625 21.667969 44.207031 21.652344 C 44.273438 21.632812 44.339844 21.617188 44.410156 21.605469 C 44.460938 21.59375 44.507812 21.585938 44.558594 21.578125 C 44.648438 21.566406 44.734375 21.554688 44.824219 21.546875 L 44.847656 21.546875 L 44.835938 21.570312 C 44.808594 21.632812 44.765625 21.683594 44.71875 21.730469 C 44.882812 21.679688 45.03125 21.578125 45.164062 21.464844 C 45.183594 21.449219 45.199219 21.429688 45.21875 21.414062 C 45.238281 21.398438 45.257812 21.378906 45.273438 21.363281 C 45.285156 21.355469 45.292969 21.347656 45.304688 21.335938 L 45.3125 21.332031 C 45.320312 21.332031 45.316406 21.324219 45.335938 21.339844 C 45.347656 21.363281 45.339844 21.355469 45.339844 21.359375 L 45.339844 21.367188 L 45.335938 21.375 L 45.324219 21.394531 C 45.308594 21.417969 45.292969 21.4375 45.277344 21.460938 C 45.242188 21.503906 45.203125 21.546875 45.167969 21.589844 C 45.242188 21.542969 45.3125 21.488281 45.382812 21.429688 C 45.433594 21.382812 45.484375 21.335938 45.535156 21.285156 C 45.578125 21.238281 45.625 21.191406 45.667969 21.140625 L 45.742188 21.054688 L 45.703125 21.160156 C 45.695312 21.175781 45.691406 21.191406 45.683594 21.207031 C 45.660156 21.253906 45.636719 21.300781 45.605469 21.339844 C 45.648438 21.308594 45.683594 21.273438 45.71875 21.238281 C 45.757812 21.203125 45.789062 21.164062 45.824219 21.128906 C 45.851562 21.097656 45.882812 21.070312 45.910156 21.039062 L 46 20.9375 C 46.007812 20.925781 46.015625 20.917969 46.027344 20.910156 L 46.03125 20.90625 C 46.03125 20.90625 46.042969 20.90625 46.050781 20.914062 C 46.054688 20.925781 46.050781 20.917969 46.050781 20.921875 C 46.050781 20.9375 46.050781 20.929688 46.050781 20.933594 L 46.039062 20.957031 L 46.015625 21.007812 L 45.917969 21.21875 C 46 21.144531 46.074219 21.058594 46.152344 20.976562 L 46.417969 20.675781 L 46.414062 20.675781 C 46.613281 20.460938 46.703125 20.257812 46.832031 20.039062 C 46.875 19.972656 46.941406 19.925781 47.011719 19.902344 L 47.015625 19.902344 C 47.078125 19.882812 47.144531 19.886719 47.203125 19.902344 C 47.214844 19.90625 47.226562 19.90625 47.238281 19.914062 C 47.382812 19.964844 47.503906 20.074219 47.605469 20.1875 C 47.710938 20.308594 47.800781 20.429688 47.90625 20.546875 C 47.957031 20.605469 48.007812 20.664062 48.0625 20.71875 C 48.097656 20.757812 48.136719 20.792969 48.175781 20.828125 L 48.105469 20.632812 L 48.082031 20.566406 L 48.070312 20.542969 L 48.070312 20.539062 C 48.070312 20.535156 48.070312 20.546875 48.070312 20.53125 L 48.070312 20.527344 C 48.074219 20.527344 48.0625 20.535156 48.078125 20.515625 C 48.089844 20.507812 48.101562 20.515625 48.101562 20.515625 C 48.117188 20.527344 48.121094 20.535156 48.128906 20.546875 L 48.210938 20.65625 C 48.265625 20.730469 48.320312 20.804688 48.382812 20.875 C 48.417969 20.917969 48.457031 20.960938 48.5 21 L 48.402344 20.808594 L 48.441406 20.78125 C 48.523438 20.890625 48.609375 20.996094 48.699219 21.09375 C 48.765625 21.164062 48.832031 21.230469 48.90625 21.285156 C 48.871094 21.238281 48.835938 21.1875 48.800781 21.136719 C 48.789062 21.113281 48.773438 21.09375 48.761719 21.066406 L 48.753906 21.050781 L 48.75 21.039062 L 48.746094 21.03125 C 48.75 21.027344 48.742188 21.035156 48.753906 21.011719 C 48.773438 21 48.769531 21.007812 48.773438 21.007812 L 48.78125 21.011719 C 48.796875 21.023438 48.800781 21.03125 48.8125 21.042969 C 48.84375 21.078125 48.878906 21.117188 48.914062 21.152344 C 49.035156 21.277344 49.171875 21.390625 49.332031 21.457031 C 49.289062 21.40625 49.253906 21.351562 49.230469 21.285156 L 49.214844 21.238281 L 49.253906 21.269531 C 49.339844 21.335938 49.433594 21.394531 49.53125 21.453125 C 49.625 21.507812 49.722656 21.5625 49.820312 21.613281 C 49.855469 21.632812 49.886719 21.648438 49.921875 21.664062 L 49.925781 21.660156 C 50.085938 21.738281 50.257812 21.816406 50.441406 21.886719 C 50.558594 22.285156 50.515625 22.417969 50.515625 22.417969 C 50.515625 22.417969 50.074219 23.796875 49.785156 24.304688 C 49.492188 24.8125 49.074219 24.648438 48.585938 25.097656 C 48.425781 25.242188 48.304688 25.335938 48.320312 25.585938 C 48.324219 25.664062 48.617188 25.703125 49.019531 25.714844 C 49.019531 25.714844 49.007812 25.648438 49.015625 25.550781 C 49.019531 25.5 49.027344 25.445312 49.042969 25.382812 C 49.050781 25.355469 49.0625 25.324219 49.074219 25.292969 C 49.085938 25.261719 49.105469 25.234375 49.121094 25.207031 C 49.136719 25.175781 49.152344 25.152344 49.175781 25.125 C 49.195312 25.101562 49.21875 25.078125 49.242188 25.058594 C 49.285156 25.015625 49.335938 24.988281 49.378906 24.964844 C 49.417969 24.945312 49.457031 24.933594 49.480469 24.921875 C 49.507812 24.914062 49.523438 24.910156 49.523438 24.910156 C 49.523438 24.910156 49.46875 24.941406 49.390625 24.992188 C 49.351562 25.015625 49.3125 25.050781 49.269531 25.089844 C 49.25 25.109375 49.230469 25.132812 49.210938 25.15625 C 49.195312 25.179688 49.175781 25.210938 49.160156 25.234375 C 49.09375 25.335938 49.058594 25.460938 49.042969 25.554688 C 49.023438 25.648438 49.019531 25.714844 49.019531 25.714844 C 49.910156 25.734375 51.339844 25.613281 51.410156 25.457031 C 51.511719 25.230469 51.378906 25.203125 51.429688 25.082031 C 51.539062 24.832031 52.503906 23.746094 53.113281 22.898438 C 53.285156 22.660156 53.363281 22.476562 53.398438 22.304688 L 53.402344 22.296875 C 53.414062 22.167969 53.421875 22.039062 53.421875 21.910156 L 53.421875 21.894531 L 53.433594 21.90625 C 53.507812 21.96875 53.597656 22.015625 53.6875 22.058594 C 53.660156 22.011719 53.628906 21.964844 53.605469 21.914062 C 53.574219 21.855469 53.546875 21.796875 53.519531 21.734375 C 53.484375 21.652344 53.449219 21.566406 53.414062 21.480469 C 53.402344 21.441406 53.382812 21.402344 53.367188 21.363281 L 53.394531 21.351562 C 53.402344 21.363281 53.410156 21.375 53.417969 21.386719 C 53.488281 21.484375 53.585938 21.558594 53.691406 21.609375 C 53.675781 21.585938 53.660156 21.5625 53.648438 21.539062 C 53.628906 21.496094 53.609375 21.453125 53.59375 21.40625 C 53.5625 21.316406 53.539062 21.226562 53.515625 21.136719 C 53.5 21.0625 53.488281 20.992188 53.472656 20.917969 C 53.460938 20.855469 53.453125 20.792969 53.441406 20.726562 C 53.429688 20.679688 53.421875 20.628906 53.421875 20.582031 L 53.421875 20.578125 L 53.460938 20.578125 C 53.46875 20.617188 53.472656 20.65625 53.480469 20.695312 C 53.484375 20.722656 53.492188 20.746094 53.503906 20.773438 C 53.511719 20.792969 53.523438 20.816406 53.539062 20.835938 C 53.570312 20.890625 53.613281 20.9375 53.660156 20.976562 C 53.644531 20.929688 53.636719 20.878906 53.628906 20.828125 C 53.621094 20.75 53.617188 20.667969 53.617188 20.589844 C 53.613281 20.472656 53.621094 20.351562 53.628906 20.234375 C 53.632812 20.195312 53.636719 20.15625 53.636719 20.117188 L 53.644531 20.117188 L 53.683594 20.121094 C 53.679688 20.253906 53.722656 20.386719 53.785156 20.507812 C 53.785156 20.460938 53.789062 20.410156 53.792969 20.363281 L 53.804688 20.136719 L 53.816406 19.953125 L 53.832031 19.683594 L 53.855469 19.226562 C 53.859375 19.078125 53.871094 18.925781 53.871094 18.773438 C 53.875 18.699219 53.871094 18.625 53.867188 18.546875 C 53.863281 18.472656 53.851562 18.398438 53.84375 18.324219 C 53.835938 18.25 53.816406 18.175781 53.804688 18.101562 C 53.785156 18.027344 53.765625 17.957031 53.742188 17.886719 C 53.71875 17.8125 53.691406 17.742188 53.660156 17.675781 C 53.628906 17.609375 53.59375 17.542969 53.554688 17.476562 C 53.503906 17.390625 53.441406 17.3125 53.375 17.238281 C 53.34375 17.203125 53.308594 17.167969 53.273438 17.136719 C 53.308594 17.167969 53.34375 17.203125 53.378906 17.238281 C 53.449219 17.308594 53.507812 17.386719 53.5625 17.472656 C 53.605469 17.535156 53.640625 17.601562 53.671875 17.667969 C 53.707031 17.738281 53.734375 17.804688 53.757812 17.878906 C 53.789062 17.949219 53.804688 18.023438 53.824219 18.09375 C 53.839844 18.171875 53.859375 18.242188 53.867188 18.320312 C 53.878906 18.394531 53.890625 18.46875 53.894531 18.546875 C 53.898438 18.621094 53.902344 18.699219 53.902344 18.773438 C 53.902344 18.925781 53.890625 19.078125 53.886719 19.230469 L 53.867188 19.683594 L 53.851562 19.957031 L 53.84375 20.136719 L 53.832031 20.363281 C 53.828125 20.441406 53.824219 20.515625 53.828125 20.589844 L 53.835938 20.671875 L 53.789062 20.605469 C 53.742188 20.53125 53.707031 20.457031 53.679688 20.375 C 53.675781 20.363281 53.671875 20.351562 53.671875 20.339844 C 53.667969 20.421875 53.664062 20.503906 53.664062 20.589844 C 53.664062 20.667969 53.667969 20.746094 53.675781 20.820312 C 53.683594 20.898438 53.699219 20.976562 53.730469 21.039062 L 53.769531 21.121094 L 53.699219 21.070312 C 53.617188 21.015625 53.550781 20.945312 53.5 20.863281 C 53.515625 20.949219 53.53125 21.039062 53.550781 21.128906 C 53.574219 21.21875 53.597656 21.308594 53.625 21.394531 C 53.640625 21.4375 53.660156 21.480469 53.675781 21.523438 C 53.695312 21.5625 53.71875 21.601562 53.746094 21.636719 L 53.785156 21.6875 L 53.730469 21.664062 C 53.621094 21.621094 53.519531 21.558594 53.441406 21.46875 C 53.472656 21.554688 53.507812 21.640625 53.542969 21.722656 C 53.570312 21.785156 53.597656 21.84375 53.625 21.90625 C 53.65625 21.964844 53.6875 22.023438 53.722656 22.078125 L 53.742188 22.109375 L 53.710938 22.09375 C 53.613281 22.046875 53.515625 21.992188 53.433594 21.921875 C 53.433594 21.980469 53.429688 22.042969 53.421875 22.101562 C 53.421875 22.164062 53.414062 22.226562 53.402344 22.292969 L 53.398438 22.304688 C 53.859375 22.273438 54.351562 22.203125 54.875 22.082031 L 54.875 26.878906 L 51.019531 26.878906 L 58.054688 34.277344 L 65.089844 26.878906 L 61.230469 26.878906 L 61.199219 10.816406 L 54.875 10.816406 L 54.875 13.464844 C 52.417969 12.941406 49.746094 11.871094 47.554688 12.554688 C 46.136719 12.996094 45.671875 13.890625 44.628906 15.246094 C 44.425781 15.449219 44.003906 16.015625 43.878906 16.183594 C 43.78125 16.3125 43.679688 16.4375 43.578125 16.5625 C 43.59375 16.542969 43.609375 16.527344 43.609375 16.527344 C 43.609375 16.527344 43.597656 16.542969 43.582031 16.570312 C 43.558594 16.601562 43.527344 16.652344 43.480469 16.714844 C 43.441406 16.769531 43.394531 16.832031 43.339844 16.894531 C 43.28125 16.957031 43.222656 17.027344 43.15625 17.085938 C 43.085938 17.148438 43.015625 17.195312 42.957031 17.253906 C 42.898438 17.3125 42.84375 17.367188 42.800781 17.417969 C 42.78125 17.4375 42.765625 17.457031 42.753906 17.472656 C 42.738281 17.492188 42.722656 17.511719 42.710938 17.53125 C 42.679688 17.570312 42.664062 17.59375 42.664062 17.59375 L 42.667969 17.597656 C 42.457031 17.929688 42.332031 18.316406 42.300781 18.710938 C 42.21875 19.742188 42.316406 19.351562 42.222656 19.863281 C 42.109375 20.457031 41.460938 21.027344 41.425781 21.167969 C 41.425781 21.175781 41.425781 21.1875 41.425781 21.195312 "/>
</g>
<path style=" stroke:none;fill-rule:nonzero;fill:rgb(72.549438%,11.369324%,14.118958%);fill-opacity:1;" d="M 46.144531 23.859375 C 46.144531 23.859375 46.128906 23.867188 46.109375 23.878906 C 46.085938 23.894531 46.050781 23.910156 46.015625 23.9375 C 45.996094 23.949219 45.980469 23.964844 45.957031 23.980469 C 45.9375 23.992188 45.917969 24.015625 45.898438 24.03125 C 45.882812 24.050781 45.859375 24.066406 45.84375 24.09375 L 45.789062 24.167969 C 45.773438 24.1875 45.757812 24.21875 45.746094 24.242188 C 45.730469 24.269531 45.714844 24.292969 45.707031 24.320312 C 45.699219 24.347656 45.6875 24.375 45.679688 24.398438 C 45.667969 24.421875 45.664062 24.445312 45.660156 24.46875 C 45.636719 24.558594 45.632812 24.621094 45.628906 24.621094 C 45.632812 24.621094 45.621094 24.558594 45.632812 24.464844 C 45.636719 24.441406 45.636719 24.414062 45.644531 24.386719 C 45.652344 24.359375 45.660156 24.332031 45.667969 24.304688 C 45.675781 24.273438 45.691406 24.25 45.707031 24.222656 C 45.71875 24.191406 45.730469 24.164062 45.75 24.136719 L 45.808594 24.0625 C 45.824219 24.039062 45.851562 24.019531 45.871094 24 C 45.914062 23.957031 45.964844 23.933594 46.003906 23.910156 C 46.042969 23.890625 46.082031 23.882812 46.105469 23.871094 C 46.128906 23.863281 46.144531 23.859375 46.144531 23.859375 Z M 46.832031 20.039062 C 47.3125 21.054688 47.214844 21.351562 47.214844 21.351562 C 47.214844 21.351562 46.773438 22.730469 46.484375 23.238281 C 46.195312 23.746094 45.773438 23.578125 45.285156 24.03125 C 45.128906 24.175781 45.007812 24.265625 45.019531 24.519531 C 45.019531 24.554688 45.085938 24.582031 45.191406 24.601562 C 45.191406 24.597656 45.191406 24.589844 45.191406 24.582031 C 45.1875 24.554688 45.191406 24.519531 45.195312 24.476562 C 45.199219 24.453125 45.207031 24.429688 45.210938 24.40625 C 45.21875 24.382812 45.226562 24.355469 45.238281 24.332031 C 45.257812 24.28125 45.289062 24.230469 45.320312 24.179688 C 45.335938 24.15625 45.359375 24.136719 45.375 24.117188 C 45.398438 24.097656 45.414062 24.074219 45.433594 24.058594 C 45.476562 24.023438 45.515625 23.992188 45.550781 23.972656 C 45.625 23.929688 45.675781 23.910156 45.675781 23.910156 C 45.675781 23.910156 45.632812 23.945312 45.566406 23.996094 C 45.535156 24.019531 45.503906 24.058594 45.464844 24.089844 C 45.441406 24.105469 45.429688 24.128906 45.410156 24.148438 C 45.394531 24.167969 45.371094 24.1875 45.359375 24.210938 C 45.328125 24.257812 45.296875 24.300781 45.277344 24.351562 C 45.261719 24.371094 45.253906 24.394531 45.246094 24.417969 C 45.238281 24.441406 45.226562 24.460938 45.222656 24.480469 C 45.214844 24.523438 45.203125 24.554688 45.199219 24.582031 C 45.199219 24.589844 45.199219 24.597656 45.195312 24.605469 C 45.378906 24.636719 45.683594 24.652344 46.03125 24.648438 C 46.03125 24.640625 46.011719 24.601562 46.015625 24.53125 C 46.011719 24.515625 46.015625 24.496094 46.019531 24.476562 C 46.023438 24.453125 46.023438 24.433594 46.03125 24.410156 C 46.046875 24.367188 46.0625 24.324219 46.085938 24.28125 C 46.105469 24.238281 46.136719 24.203125 46.164062 24.167969 C 46.191406 24.132812 46.222656 24.109375 46.246094 24.085938 C 46.304688 24.046875 46.34375 24.027344 46.34375 24.027344 C 46.34375 24.027344 46.3125 24.0625 46.265625 24.105469 C 46.246094 24.132812 46.21875 24.164062 46.195312 24.195312 C 46.171875 24.230469 46.144531 24.265625 46.128906 24.308594 C 46.105469 24.34375 46.089844 24.386719 46.074219 24.425781 C 46.066406 24.445312 46.0625 24.464844 46.054688 24.484375 C 46.050781 24.5 46.042969 24.519531 46.042969 24.535156 C 46.035156 24.566406 46.03125 24.597656 46.03125 24.617188 C 46.03125 24.636719 46.03125 24.644531 46.03125 24.648438 C 46.910156 24.640625 48.046875 24.527344 48.109375 24.390625 C 48.210938 24.164062 48.078125 24.136719 48.128906 24.011719 C 48.238281 23.761719 49.203125 22.675781 49.8125 21.828125 C 49.851562 21.777344 49.886719 21.726562 49.914062 21.679688 C 49.878906 21.664062 49.847656 21.648438 49.8125 21.628906 C 49.625 21.542969 49.449219 21.441406 49.277344 21.320312 C 49.308594 21.382812 49.351562 21.4375 49.402344 21.488281 L 49.445312 21.535156 L 49.386719 21.515625 C 49.191406 21.457031 49.027344 21.324219 48.886719 21.179688 C 48.878906 21.171875 48.871094 21.164062 48.867188 21.15625 C 48.914062 21.226562 48.960938 21.292969 49.011719 21.355469 L 49.078125 21.445312 L 48.984375 21.390625 C 48.863281 21.324219 48.761719 21.230469 48.667969 21.128906 C 48.625 21.085938 48.585938 21.042969 48.546875 20.996094 L 48.617188 21.136719 L 48.550781 21.097656 C 48.46875 21.046875 48.410156 20.972656 48.351562 20.902344 C 48.289062 20.832031 48.234375 20.757812 48.179688 20.683594 L 48.140625 20.628906 L 48.230469 20.886719 L 48.253906 20.949219 L 48.207031 20.90625 C 48.148438 20.851562 48.09375 20.796875 48.039062 20.742188 C 47.984375 20.6875 47.933594 20.625 47.882812 20.566406 C 47.78125 20.449219 47.6875 20.324219 47.589844 20.207031 C 47.488281 20.089844 47.375 19.980469 47.234375 19.925781 C 47.207031 19.914062 47.175781 19.90625 47.144531 19.902344 L 47.054688 19.902344 C 47.039062 19.902344 47.027344 19.90625 47.015625 19.910156 C 46.941406 19.929688 46.878906 19.976562 46.832031 20.039062 "/>
<path style=" stroke:none;fill-rule:nonzero;fill:rgb(72.549438%,11.369324%,14.118958%);fill-opacity:1;" d="M 42.363281 16.21875 C 42.574219 16.023438 43.121094 16.332031 43.574219 16.566406 C 43.550781 16.59375 43.511719 16.640625 43.460938 16.695312 C 43.417969 16.746094 43.363281 16.804688 43.308594 16.863281 C 43.25 16.925781 43.191406 16.992188 43.125 17.046875 C 43.0625 17.105469 42.988281 17.160156 42.929688 17.222656 C 42.867188 17.28125 42.820312 17.34375 42.777344 17.398438 C 42.699219 17.507812 42.664062 17.59375 42.664062 17.59375 C 42.554688 17.449219 41.949219 16.605469 42.363281 16.21875 "/>
</g>
</svg>
