<?xml version="1.0" encoding="UTF-8"?>
<svg xmlns="http://www.w3.org/2000/svg" xmlns:xlink="http://www.w3.org/1999/xlink" width="75pt" height="74.999997pt" viewBox="0 0 75 74.999997" version="1.2">
<defs>
<clipPath id="clip1">
  <path d="M 29.945312 26.109375 L 44.839844 26.109375 L 44.839844 48.332031 L 29.945312 48.332031 Z M 29.945312 26.109375 "/>
</clipPath>
</defs>
<g id="surface1">
<path style=" stroke:none;fill-rule:nonzero;fill:rgb(0%,0%,0%);fill-opacity:1;" d="M 37.5 16.875 C 36.824219 16.875 36.152344 16.90625 35.476562 16.972656 C 34.804688 17.039062 34.140625 17.140625 33.476562 17.269531 C 32.8125 17.402344 32.160156 17.566406 31.511719 17.761719 C 30.867188 17.960938 30.230469 18.1875 29.605469 18.445312 C 28.984375 18.703125 28.375 18.992188 27.777344 19.308594 C 27.183594 19.628906 26.601562 19.976562 26.042969 20.351562 C 25.480469 20.726562 24.9375 21.128906 24.414062 21.558594 C 23.894531 21.984375 23.394531 22.4375 22.914062 22.914062 C 22.4375 23.394531 21.984375 23.894531 21.558594 24.414062 C 21.128906 24.9375 20.726562 25.480469 20.351562 26.042969 C 19.976562 26.601562 19.628906 27.183594 19.308594 27.777344 C 18.992188 28.375 18.703125 28.984375 18.445312 29.605469 C 18.1875 30.230469 17.960938 30.867188 17.761719 31.511719 C 17.566406 32.160156 17.402344 32.8125 17.269531 33.476562 C 17.140625 34.140625 17.039062 34.804688 16.972656 35.476562 C 16.90625 36.152344 16.875 36.824219 16.875 37.5 C 16.875 38.175781 16.90625 38.847656 16.972656 39.523438 C 17.039062 40.195312 17.140625 40.859375 17.269531 41.523438 C 17.402344 42.1875 17.566406 42.839844 17.761719 43.488281 C 17.960938 44.132812 18.1875 44.769531 18.445312 45.394531 C 18.703125 46.015625 18.992188 46.625 19.308594 47.222656 C 19.628906 47.816406 19.976562 48.398438 20.351562 48.957031 C 20.726562 49.519531 21.128906 50.0625 21.558594 50.585938 C 21.984375 51.105469 22.4375 51.605469 22.914062 52.085938 C 23.394531 52.5625 23.894531 53.015625 24.414062 53.441406 C 24.9375 53.871094 25.480469 54.273438 26.042969 54.648438 C 26.601562 55.023438 27.183594 55.371094 27.777344 55.691406 C 28.375 56.007812 28.984375 56.296875 29.605469 56.554688 C 30.230469 56.8125 30.867188 57.039062 31.511719 57.238281 C 32.160156 57.433594 32.8125 57.597656 33.476562 57.730469 C 34.140625 57.859375 34.804688 57.960938 35.476562 58.027344 C 36.152344 58.09375 36.824219 58.125 37.5 58.125 C 38.175781 58.125 38.847656 58.09375 39.523438 58.027344 C 40.195312 57.960938 40.859375 57.859375 41.523438 57.730469 C 42.1875 57.597656 42.839844 57.433594 43.488281 57.238281 C 44.132812 57.039062 44.769531 56.8125 45.394531 56.554688 C 46.015625 56.296875 46.625 56.007812 47.222656 55.691406 C 47.816406 55.371094 48.398438 55.023438 48.957031 54.648438 C 49.519531 54.273438 50.0625 53.871094 50.585938 53.441406 C 51.105469 53.015625 51.605469 52.5625 52.085938 52.085938 C 52.5625 51.605469 53.015625 51.105469 53.441406 50.585938 C 53.871094 50.0625 54.273438 49.519531 54.648438 48.957031 C 55.023438 48.398438 55.371094 47.816406 55.691406 47.222656 C 56.007812 46.625 56.296875 46.015625 56.554688 45.394531 C 56.8125 44.769531 57.039062 44.132812 57.238281 43.488281 C 57.433594 42.839844 57.597656 42.1875 57.730469 41.523438 C 57.859375 40.859375 57.960938 40.195312 58.027344 39.523438 C 58.09375 38.847656 58.125 38.175781 58.125 37.5 C 58.125 36.824219 58.09375 36.152344 58.027344 35.476562 C 57.960938 34.804688 57.859375 34.140625 57.730469 33.476562 C 57.597656 32.8125 57.433594 32.160156 57.238281 31.511719 C 57.039062 30.867188 56.8125 30.230469 56.554688 29.605469 C 56.296875 28.984375 56.007812 28.375 55.691406 27.777344 C 55.371094 27.183594 55.023438 26.601562 54.648438 26.042969 C 54.273438 25.480469 53.871094 24.9375 53.441406 24.414062 C 53.015625 23.894531 52.5625 23.394531 52.085938 22.914062 C 51.605469 22.4375 51.105469 21.984375 50.585938 21.558594 C 50.0625 21.128906 49.519531 20.726562 48.957031 20.351562 C 48.398438 19.976562 47.816406 19.628906 47.222656 19.308594 C 46.625 18.992188 46.015625 18.703125 45.394531 18.445312 C 44.769531 18.1875 44.132812 17.960938 43.488281 17.761719 C 42.839844 17.566406 42.1875 17.402344 41.523438 17.269531 C 40.859375 17.140625 40.195312 17.039062 39.523438 16.972656 C 38.847656 16.90625 38.175781 16.875 37.5 16.875 Z M 37.5 16.875 "/>
<g clip-path="url(#clip1)" clip-rule="nonzero">
<path style=" stroke:none;fill-rule:evenodd;fill:rgb(95.689392%,73.728943%,19.999695%);fill-opacity:1;" d="M 39.003906 46.011719 C 39.003906 46.742188 39.003906 47.488281 39.003906 48.273438 C 37.863281 48.273438 36.800781 48.273438 35.660156 48.273438 C 35.660156 47.519531 35.660156 46.773438 35.660156 45.992188 C 32.492188 45.082031 30.332031 43.308594 29.945312 39.816406 C 31.179688 39.816406 32.324219 39.816406 33.53125 39.816406 C 33.816406 40.914062 34.222656 41.972656 35.566406 42.398438 C 35.566406 41.097656 35.566406 39.855469 35.566406 38.558594 C 32.804688 38.019531 30.296875 37.105469 30.214844 33.703125 C 30.152344 31.140625 31.8125 29.554688 35.605469 28.386719 C 35.605469 27.679688 35.605469 26.957031 35.605469 26.164062 C 36.734375 26.164062 37.816406 26.164062 38.972656 26.164062 C 38.972656 26.898438 38.972656 27.617188 38.972656 28.378906 C 42.09375 29.054688 44.269531 30.589844 44.5 34.058594 C 43.257812 34.058594 42.136719 34.058594 40.984375 34.058594 C 40.691406 33.058594 40.285156 32.164062 39.050781 31.945312 C 39.050781 33.152344 39.050781 34.292969 39.050781 35.421875 C 43.417969 36.410156 44.859375 37.644531 44.839844 40.375 C 44.824219 43.148438 42.652344 45.261719 39.003906 46.011719 Z M 39.046875 39.066406 C 39.046875 40.242188 39.046875 41.351562 39.046875 42.464844 C 40.539062 42.277344 41.460938 41.535156 41.394531 40.609375 C 41.328125 39.71875 40.476562 39.144531 39.046875 39.066406 Z M 35.648438 31.953125 C 34.382812 32.195312 33.785156 32.816406 33.875 33.699219 C 33.957031 34.46875 34.550781 34.882812 35.648438 34.894531 C 35.648438 33.9375 35.648438 32.976562 35.648438 31.953125 Z M 35.648438 31.953125 "/>
</g>
</g>
</svg>
